<svg viewBox="0 0 19 21" fill="none" xmlns="http://www.w3.org/2000/svg">
<g opacity="0.8">
<path d="M6.5 19.4998C6.5 20.052 6.05228 20.4998 5.5 20.4998C4.94772 20.4998 4.5 20.052 4.5 19.4998C4.5 18.9475 4.94772 18.4998 5.5 18.4998C6.05228 18.4998 6.5 18.9475 6.5 19.4998Z" stroke="#1E1F21"/>
<path d="M14.5 19.4998C14.5 20.052 14.0523 20.4998 13.5 20.4998C12.9477 20.4998 12.5 20.052 12.5 19.4998C12.5 18.9475 12.9477 18.4998 13.5 18.4998C14.0523 18.4998 14.5 18.9475 14.5 19.4998Z" stroke="#1E1F21"/>
<path d="M0 1L3 1C3 1 3.5 7.5 4 12.8462C4.20056 14.9906 4 15 6 15C7.6 15 13 15 16 15" stroke="#1E1F21"/>
<path d="M3 4H18C18 4 17.5 6.57143 17 9C16.5 11.4286 15.9476 12 14.2143 12C12.8276 12 7.17778 12 4 12" stroke="#1E1F21"/>
</g>
</svg>
