<svg viewBox="0 0 15 18" fill="none" xmlns="http://www.w3.org/2000/svg">
<path d="M7.58373 0.52002C8.5224 0.52002 9.39707 0.685353 10.2077 1.01602C11.0184 1.34669 11.7224 1.80002 12.3197 2.37602C12.9171 2.95202 13.3864 3.63469 13.7277 4.42402C14.0691 5.20269 14.2397 6.04535 14.2397 6.95202C14.2397 7.95469 14.0317 8.87202 13.6157 9.70402C13.2104 10.5254 12.6664 11.2347 11.9837 11.832C11.5357 12.216 11.0344 12.5414 10.4797 12.808C9.92507 13.064 9.34373 13.304 8.73573 13.528C8.44773 13.6454 8.16507 13.768 7.88773 13.896C7.62107 14.024 7.37573 14.1734 7.15173 14.344V14.408C7.21573 14.3974 7.30107 14.3867 7.40773 14.376C7.52507 14.376 7.6264 14.376 7.71173 14.376C8.19173 14.376 8.63973 14.4347 9.05573 14.552C9.47173 14.68 9.87707 14.8187 10.2717 14.968C10.6664 15.128 11.0611 15.2667 11.4557 15.384C11.8504 15.512 12.2664 15.576 12.7037 15.576C13.2051 15.576 13.5837 15.4694 13.8397 15.256C14.0957 15.0427 14.3037 14.6747 14.4637 14.152H14.8637C14.8851 14.248 14.9011 14.3547 14.9117 14.472C14.9224 14.5894 14.9277 14.7067 14.9277 14.824C14.9277 15.1654 14.8531 15.4747 14.7037 15.752C14.5651 16.04 14.3677 16.2854 14.1117 16.488C13.8664 16.7014 13.5731 16.8667 13.2317 16.984C12.8904 17.1014 12.5224 17.16 12.1277 17.16C11.5304 17.16 10.9757 17.0427 10.4637 16.808C9.9624 16.584 9.4824 16.3334 9.02373 16.056C8.57573 15.7894 8.14373 15.5387 7.72773 15.304C7.31173 15.08 6.90107 14.968 6.49573 14.968C6.2184 14.968 5.9944 15.0214 5.82373 15.128C5.65307 15.2347 5.4984 15.352 5.35973 15.48C5.22107 15.6187 5.08773 15.7414 4.95973 15.848C4.8424 15.9547 4.69307 16.008 4.51173 16.008C4.2024 16.008 4.04773 15.8747 4.04773 15.608C4.04773 15.5334 4.0584 15.4694 4.07973 15.416C4.10107 15.3627 4.14373 15.2987 4.20773 15.224C4.2824 15.16 4.38907 15.08 4.52773 14.984C4.6664 14.8987 4.8584 14.7867 5.10373 14.648L7.18373 13.464C6.28773 13.432 5.45573 13.2454 4.68773 12.904C3.91973 12.552 3.2584 12.088 2.70373 11.512C2.14907 10.9254 1.71173 10.248 1.39173 9.48002C1.0824 8.70135 0.927734 7.86935 0.927734 6.98402C0.927734 6.06669 1.0984 5.21335 1.43973 4.42402C1.78107 3.63469 2.2504 2.95202 2.84773 2.37602C3.44507 1.80002 4.14907 1.34669 4.95973 1.01602C5.7704 0.685353 6.64507 0.52002 7.58373 0.52002ZM7.58373 12.68C8.28773 12.68 8.91707 12.5467 9.47173 12.28C10.0371 12.0134 10.5171 11.6347 10.9117 11.144C11.3171 10.6427 11.6264 10.0454 11.8397 9.35202C12.0531 8.64802 12.1597 7.85869 12.1597 6.98402C12.1597 6.13069 12.0531 5.36269 11.8397 4.68002C11.6264 3.98669 11.3224 3.40002 10.9277 2.92002C10.5331 2.42935 10.0531 2.05602 9.48773 1.80002C8.9224 1.53335 8.28773 1.40002 7.58373 1.40002C6.87973 1.40002 6.24507 1.53335 5.67973 1.80002C5.1144 2.05602 4.6344 2.42935 4.23973 2.92002C3.84507 3.40002 3.54107 3.98669 3.32773 4.68002C3.1144 5.36269 3.00773 6.13069 3.00773 6.98402C3.00773 7.85869 3.1144 8.64802 3.32773 9.35202C3.54107 10.0454 3.84507 10.6427 4.23973 11.144C4.6344 11.6347 5.1144 12.0134 5.67973 12.28C6.24507 12.5467 6.87973 12.68 7.58373 12.68Z" fill="#678B75"/>
</svg>
