<svg  viewBox="0 0 80 80" fill="none" xmlns="http://www.w3.org/2000/svg">
<circle cx="39.8896" cy="40.0492" r="34" fill="#678B75"/>
<path d="M30.418 43.4669V44.3458C30.418 45.1076 30.4245 45.56 30.4375 45.7033C30.457 45.9311 30.5091 46.146 30.5938 46.3478C30.6784 46.5496 30.8672 46.6863 31.1602 46.7579C31.2969 46.7905 31.5898 46.8263 32.0391 46.8654C32.1302 46.8654 32.1758 46.95 32.1758 47.1193C32.1758 47.2951 32.1237 47.3829 32.0195 47.3829C30.9258 47.3309 30.0632 47.3048 29.4316 47.3048C28.7546 47.3048 27.8529 47.3309 26.7266 47.3829C26.6094 47.3829 26.5508 47.2951 26.5508 47.1193C26.5508 46.963 26.6094 46.8784 26.7266 46.8654C27.1823 46.8198 27.4883 46.7775 27.6445 46.7384C27.8789 46.6733 28.0286 46.5691 28.0938 46.4259C28.2695 46.0613 28.3574 45.381 28.3574 44.3849V43.4865H25.1934L23.2988 43.506C23.123 43.506 23.0352 43.3335 23.0352 42.9884C23.0352 42.715 23.11 42.4415 23.2598 42.1681C25.3366 38.5223 27.1204 35.5275 28.6113 33.1837L30.3984 32.7052C30.5026 32.7052 30.5547 32.7833 30.5547 32.9396C30.5482 33.2977 30.5319 34.1668 30.5059 35.547C30.4928 36.5301 30.4766 37.3634 30.457 38.047L30.418 42.7247C30.9844 42.7247 31.6549 42.6922 32.4297 42.6271C32.5143 42.6271 32.5566 42.6564 32.5566 42.715C32.5566 42.7345 32.5566 42.7508 32.5566 42.7638L32.3711 43.3693C32.3451 43.4604 32.2865 43.506 32.1953 43.506C31.8112 43.48 31.2188 43.4669 30.418 43.4669ZM28.3574 42.7443L28.3965 38.4083C28.416 36.9565 28.4551 35.7163 28.5137 34.6876C26.6908 37.5783 25.1673 40.1564 23.9434 42.422C23.8978 42.5066 23.875 42.575 23.875 42.6271C23.875 42.7052 23.9564 42.7443 24.1191 42.7443H28.3574Z" fill="white"/>
<path d="M38.2012 32.8029C39.679 32.8029 40.8184 33.5613 41.6191 35.0783C42.3027 36.3869 42.6445 38.1089 42.6445 40.2443C42.6445 42.7182 42.1986 44.6258 41.3066 45.9669C40.5254 47.1518 39.4902 47.7443 38.2012 47.7443C36.6777 47.7443 35.5254 47.0053 34.7441 45.5275C34.0671 44.2514 33.7285 42.5294 33.7285 40.3615C33.7285 37.8484 34.1712 35.9181 35.0566 34.5704C35.8379 33.3921 36.8861 32.8029 38.2012 32.8029ZM38.2012 33.4181C37.3483 33.4181 36.7591 34.1245 36.4336 35.5372C36.1927 36.5919 36.0723 38.1805 36.0723 40.3029C36.0723 42.7247 36.235 44.4598 36.5605 45.5079C36.8991 46.5887 37.446 47.129 38.2012 47.129C39.0345 47.129 39.6139 46.4292 39.9395 45.0294C40.1803 43.9747 40.3008 42.3992 40.3008 40.3029C40.3008 37.8615 40.1413 36.1134 39.8223 35.0587C39.4902 33.965 38.9499 33.4181 38.2012 33.4181Z" fill="white"/>
<path d="M48.6979 38.0597C49.4173 38.0597 50.0055 38.339 50.4625 38.8976C50.8814 39.4096 51.0909 40.0529 51.0909 40.8273C51.0909 41.754 50.8285 42.484 50.3038 43.0172C49.8679 43.4573 49.3326 43.6774 48.6979 43.6774C47.9869 43.6774 47.4114 43.4023 46.9713 42.8522C46.565 42.3528 46.3619 41.7096 46.3619 40.9225C46.3619 40.0169 46.6201 39.2912 47.1363 38.7453C47.568 38.2882 48.0885 38.0597 48.6979 38.0597ZM48.7042 38.4215C48.336 38.4215 48.0589 38.6627 47.8727 39.1452C47.7076 39.5641 47.6251 40.1439 47.6251 40.8844C47.6251 41.7181 47.733 42.3486 47.9488 42.776C48.135 43.1442 48.3868 43.3283 48.7042 43.3283C49.0766 43.3283 49.3601 43.0892 49.5548 42.611C49.7283 42.1878 49.815 41.6123 49.815 40.8844C49.815 40.0423 49.7029 39.4054 49.4786 38.9738C49.2882 38.6056 49.03 38.4215 48.7042 38.4215ZM48.8819 48.2794L48.4566 48.0192L54.836 37.6154L55.2677 37.8756L48.8819 48.2794ZM54.9439 42.1539C55.6506 42.1539 56.2283 42.4311 56.6769 42.9855C57.0873 43.4933 57.2926 44.1344 57.2926 44.9088C57.2926 45.8441 57.0366 46.5783 56.5245 47.1115C56.0971 47.5516 55.5702 47.7716 54.9439 47.7716C54.2245 47.7716 53.6384 47.4944 53.1856 46.9401C52.7709 46.4365 52.5636 45.7912 52.5636 45.004C52.5636 44.0942 52.8259 43.3685 53.3507 42.8268C53.7908 42.3782 54.3219 42.1539 54.9439 42.1539ZM54.9439 42.5031C54.5673 42.5031 54.2838 42.7443 54.0934 43.2267C53.9241 43.6499 53.8395 44.2296 53.8395 44.966C53.8395 45.7996 53.9495 46.4302 54.1695 46.8576C54.36 47.2257 54.6181 47.4098 54.9439 47.4098C55.3121 47.4098 55.5914 47.1707 55.7818 46.6925C55.9469 46.2693 56.0294 45.6938 56.0294 44.966C56.0294 44.1238 55.9215 43.4891 55.7057 43.0617C55.5152 42.6893 55.2613 42.5031 54.9439 42.5031Z" fill="white"/>
<path d="M33.9085 52.1515C35.1227 52.1515 36.0976 52.5503 36.8333 53.3478C37.4713 54.0412 37.7903 54.9054 37.7903 55.9406C37.7903 57.1287 37.3785 58.089 36.555 58.8214C35.8421 59.4562 34.9599 59.7736 33.9085 59.7736C32.7041 59.7736 31.7324 59.365 30.9935 58.548C30.3587 57.8449 30.0413 56.9822 30.0413 55.9601C30.0413 54.7785 30.4515 53.8247 31.2718 53.0988C31.9847 52.4673 32.8636 52.1515 33.9085 52.1515ZM33.9085 52.4933C33.1207 52.4933 32.4974 52.8514 32.0384 53.5675C31.6347 54.1893 31.4329 54.9803 31.4329 55.9406C31.4329 57.0669 31.6901 57.9507 32.2044 58.5919C32.6471 59.1453 33.2151 59.422 33.9085 59.422C34.7093 59.422 35.3392 59.0656 35.7981 58.3527C36.1985 57.7309 36.3987 56.9383 36.3987 55.9747C36.3987 54.8484 36.1383 53.963 35.6175 53.3185C35.1683 52.7684 34.5986 52.4933 33.9085 52.4933Z" fill="white"/>
<path d="M40.8958 55.9943V57.7619C40.8958 58.3087 40.9023 58.644 40.9153 58.7677C40.9284 58.9012 40.9625 59.0167 41.0179 59.1144C41.07 59.2088 41.1676 59.2723 41.3108 59.3048C41.3759 59.3178 41.5322 59.3374 41.7796 59.3634C41.8382 59.3699 41.8675 59.409 41.8675 59.4806C41.8675 59.562 41.8333 59.6027 41.7649 59.6027C41.2897 59.5831 40.79 59.5734 40.2659 59.5734C39.7939 59.5734 39.33 59.5831 38.8743 59.6027C38.8157 59.6027 38.7864 59.5652 38.7864 59.4904C38.7864 59.4155 38.8125 59.3732 38.8646 59.3634C39.125 59.3374 39.2861 59.3146 39.3479 59.2951C39.4456 59.2625 39.5172 59.2023 39.5628 59.1144C39.6442 58.9581 39.6849 58.5073 39.6849 57.7619V54.1339C39.6849 53.6066 39.6784 53.2843 39.6653 53.1671C39.6523 53.0369 39.6181 52.9214 39.5628 52.8204C39.5172 52.7326 39.4212 52.6723 39.2747 52.6398C39.2096 52.6268 39.0517 52.6072 38.8011 52.5812C38.7425 52.5747 38.7132 52.5324 38.7132 52.4542C38.7132 52.3598 38.7425 52.3126 38.8011 52.3126C39.9567 52.3387 40.8519 52.3517 41.4866 52.3517C42.4404 52.3517 43.3095 52.3387 44.094 52.3126C44.1364 52.8595 44.195 53.4292 44.2698 54.0216C44.2731 54.0346 44.2747 54.0444 44.2747 54.0509C44.2747 54.09 44.2405 54.116 44.1722 54.129C44.1559 54.1323 44.1396 54.1339 44.1233 54.1339C44.0647 54.1339 44.0273 54.1095 44.011 54.0607C43.7832 53.5138 43.5569 53.1574 43.3323 52.9913C43.0426 52.7798 42.5267 52.674 41.7845 52.674C41.345 52.674 41.0813 52.757 40.9935 52.923C40.9284 53.0499 40.8958 53.4536 40.8958 54.1339V55.6232C41.0032 55.6297 41.1904 55.6329 41.4573 55.6329C42.1246 55.6329 42.5576 55.5597 42.7562 55.4132C42.9124 55.2895 43.0361 55.0698 43.1272 54.754C43.1435 54.6792 43.1891 54.6417 43.264 54.6417C43.3519 54.6417 43.3958 54.6824 43.3958 54.7638C43.3828 55.213 43.3763 55.5597 43.3763 55.8038C43.3763 56.1131 43.3828 56.4988 43.3958 56.9611C43.3958 57.0359 43.3551 57.0734 43.2737 57.0734C43.1956 57.0734 43.1468 57.0376 43.1272 56.966C43.0198 56.5851 42.8929 56.3377 42.7464 56.2238C42.4795 56.0643 42.0498 55.9845 41.4573 55.9845C41.1904 55.9845 41.0032 55.9878 40.8958 55.9943Z" fill="white"/>
<path d="M47.1556 55.9943V57.7619C47.1556 58.3087 47.1621 58.644 47.1751 58.7677C47.1881 58.9012 47.2223 59.0167 47.2776 59.1144C47.3297 59.2088 47.4274 59.2723 47.5706 59.3048C47.6357 59.3178 47.792 59.3374 48.0394 59.3634C48.0979 59.3699 48.1272 59.409 48.1272 59.4806C48.1272 59.562 48.0931 59.6027 48.0247 59.6027C47.5494 59.5831 47.0498 59.5734 46.5257 59.5734C46.0537 59.5734 45.5898 59.5831 45.1341 59.6027C45.0755 59.6027 45.0462 59.5652 45.0462 59.4904C45.0462 59.4155 45.0722 59.3732 45.1243 59.3634C45.3847 59.3374 45.5459 59.3146 45.6077 59.2951C45.7054 59.2625 45.777 59.2023 45.8226 59.1144C45.9039 58.9581 45.9446 58.5073 45.9446 57.7619V54.1339C45.9446 53.6066 45.9381 53.2843 45.9251 53.1671C45.9121 53.0369 45.8779 52.9214 45.8226 52.8204C45.777 52.7326 45.681 52.6723 45.5345 52.6398C45.4694 52.6268 45.3115 52.6072 45.0608 52.5812C45.0022 52.5747 44.9729 52.5324 44.9729 52.4542C44.9729 52.3598 45.0022 52.3126 45.0608 52.3126C46.2164 52.3387 47.1116 52.3517 47.7464 52.3517C48.7002 52.3517 49.5693 52.3387 50.3538 52.3126C50.3961 52.8595 50.4547 53.4292 50.5296 54.0216C50.5328 54.0346 50.5345 54.0444 50.5345 54.0509C50.5345 54.09 50.5003 54.116 50.4319 54.129C50.4157 54.1323 50.3994 54.1339 50.3831 54.1339C50.3245 54.1339 50.2871 54.1095 50.2708 54.0607C50.0429 53.5138 49.8167 53.1574 49.5921 52.9913C49.3024 52.7798 48.7864 52.674 48.0442 52.674C47.6048 52.674 47.3411 52.757 47.2532 52.923C47.1881 53.0499 47.1556 53.4536 47.1556 54.1339V55.6232C47.263 55.6297 47.4502 55.6329 47.7171 55.6329C48.3844 55.6329 48.8174 55.5597 49.0159 55.4132C49.1722 55.2895 49.2959 55.0698 49.387 54.754C49.4033 54.6792 49.4489 54.6417 49.5237 54.6417C49.6116 54.6417 49.6556 54.6824 49.6556 54.7638C49.6425 55.213 49.636 55.5597 49.636 55.8038C49.636 56.1131 49.6425 56.4988 49.6556 56.9611C49.6556 57.0359 49.6149 57.0734 49.5335 57.0734C49.4554 57.0734 49.4065 57.0376 49.387 56.966C49.2796 56.5851 49.1526 56.3377 49.0062 56.2238C48.7392 56.0643 48.3095 55.9845 47.7171 55.9845C47.4502 55.9845 47.263 55.9878 47.1556 55.9943Z" fill="white"/>
<path d="M30.8066 26.8891V23.3979H30.5869C30.3949 23.3979 30.1589 23.4174 29.8789 23.4565L29.7666 23.0903C30.0596 23.1424 30.333 23.1684 30.5869 23.1684H37.3252C37.6475 22.7615 37.8509 22.558 37.9355 22.558C38.0137 22.558 38.2334 22.698 38.5947 22.978C38.7868 23.1245 38.8828 23.2319 38.8828 23.3002C38.8828 23.3653 38.8405 23.3979 38.7559 23.3979H34.0537V25.0287L34.0732 27.978C34.0732 28.2319 33.891 28.3588 33.5264 28.3588C33.279 28.3588 33.1553 28.2595 33.1553 28.061L33.165 27.0893V26.8061C32.6605 27.034 32.2357 27.2065 31.8906 27.3237C31.5423 27.4409 31.0817 27.5727 30.5088 27.7192C30.4502 27.9177 30.3802 28.017 30.2988 28.017C30.1979 28.017 30.071 27.6508 29.918 26.9184C30.2207 26.9184 30.5169 26.9086 30.8066 26.8891ZM31.6562 23.3979V24.3403H33.165V23.3979H31.6562ZM31.6562 24.5698V25.4877H33.165V24.5698H31.6562ZM31.6562 25.7172V26.7963C32.0762 26.7475 32.5791 26.6645 33.165 26.5473V25.7172H31.6562ZM36.4756 22.2993H32.0664C32.0664 22.5239 31.8841 22.6362 31.5195 22.6362C31.2656 22.6362 31.1387 22.5369 31.1387 22.3383L31.168 20.7368C31.168 20.268 31.1582 19.7862 31.1387 19.2914C31.4284 19.4086 31.7604 19.5584 32.1348 19.7407H36.3975C36.6611 19.4607 36.8271 19.3207 36.8955 19.3207C36.9639 19.3207 37.151 19.4412 37.457 19.6821C37.61 19.809 37.6865 19.905 37.6865 19.9702C37.6865 20.0678 37.5889 20.1671 37.3936 20.268V20.6L37.4033 22.27C37.4033 22.5304 37.2243 22.6606 36.8662 22.6606C36.6058 22.6606 36.4756 22.5597 36.4756 22.3578V22.2993ZM36.4756 22.0698V21.1274H32.0664V22.0698H36.4756ZM36.4756 20.8979V19.9702H32.0664V20.8979H36.4756ZM36.8174 26.4252C37.4847 26.8159 38.1927 27.0535 38.9414 27.1381C38.9642 27.1414 38.9756 27.1577 38.9756 27.187C38.9756 27.2228 38.9609 27.2455 38.9316 27.2553C38.7689 27.3269 38.6533 27.436 38.585 27.5825C38.5459 27.6606 38.4987 27.8152 38.4434 28.0463C38.4238 28.1407 38.3766 28.1879 38.3018 28.1879C38.2171 28.1879 38.0771 28.144 37.8818 28.0561C37.374 27.8412 36.8418 27.4718 36.2852 26.9477C35.7122 27.4392 35.0433 27.8022 34.2783 28.0366C34.223 28.0496 34.1953 28.0219 34.1953 27.9536C34.1953 27.9405 34.2002 27.9324 34.21 27.9291C34.8675 27.5353 35.4258 27.0616 35.8848 26.5082C35.5332 26.0525 35.1979 25.3884 34.8789 24.5161C34.6966 24.5291 34.5127 24.5551 34.3271 24.5942L34.2148 24.2084C34.4915 24.2605 34.752 24.2866 34.9961 24.2866H36.9053C37.1559 24.0196 37.3171 23.8862 37.3887 23.8862C37.4635 23.8862 37.6328 23.9936 37.8965 24.2084C38.043 24.3256 38.1162 24.4151 38.1162 24.477C38.1162 24.5421 38.0951 24.5942 38.0527 24.6332C38.0104 24.6756 37.9209 24.7325 37.7842 24.8041C37.5498 25.4129 37.2275 25.9532 36.8174 26.4252ZM36.2461 26.0346C36.5749 25.5268 36.8044 25.0206 36.9346 24.5161H35.1084C35.3786 25.1215 35.7578 25.6277 36.2461 26.0346Z" fill="white"/>
<path d="M46.8492 22.5971C46.7451 23.4174 46.5725 24.1157 46.3316 24.6918C46.1168 25.2029 45.8189 25.6912 45.4381 26.1567C44.6406 27.1235 43.5436 27.8168 42.1471 28.2368C42.1308 28.24 42.1129 28.2302 42.0934 28.2075C42.0738 28.1879 42.0641 28.1668 42.0641 28.144C42.0641 28.131 42.0689 28.1212 42.0787 28.1147C43.6087 27.2911 44.6813 26.1583 45.2965 24.7162C45.5732 24.0717 45.7604 23.2791 45.858 22.3383H43.1969C42.9495 22.3383 42.6467 22.3578 42.2887 22.3969L42.1764 22.0307C42.5507 22.0828 42.8974 22.1088 43.2164 22.1088H45.8775C45.9296 21.5196 45.9557 20.9028 45.9557 20.2582C45.9557 20.0011 45.9426 19.6918 45.9166 19.3305C46.5514 19.4151 46.9501 19.4835 47.1129 19.5356C47.2594 19.5812 47.3326 19.6495 47.3326 19.7407C47.3326 19.8318 47.2171 19.9278 46.9859 20.0287C46.9859 20.8653 46.9566 21.5587 46.898 22.1088H49.4469C49.8408 21.5945 50.08 21.3373 50.1646 21.3373C50.2298 21.3373 50.4706 21.518 50.8873 21.8793C51.0924 22.0584 51.1949 22.1772 51.1949 22.2358C51.1949 22.3041 51.1526 22.3383 51.068 22.3383H46.9957C47.318 23.699 47.9397 24.7993 48.8609 25.6391C49.5283 26.2576 50.3648 26.728 51.3707 27.0502C51.3935 27.0567 51.4049 27.0746 51.4049 27.1039C51.4049 27.143 51.3902 27.1674 51.3609 27.1772C50.9996 27.3302 50.7669 27.5971 50.6627 27.978C50.6236 28.1114 50.5732 28.1782 50.5113 28.1782C50.3811 28.1782 50.1744 28.0789 49.8912 27.8803C49.2337 27.4213 48.6933 26.9103 48.2701 26.3471C47.5247 25.3575 47.051 24.1075 46.8492 22.5971Z" fill="white"/>
<path d="M68.7083 13.6021C75.0982 20.5477 79 29.8182 79 40C79 61.5391 61.5391 79 40 79C18.4609 79 1 61.5391 1 40C1 18.4609 18.4609 1 40 1C46.2263 1 52.1118 2.45906 57.3333 5.05392" stroke="#678B75"/>
</svg>
