<svg  viewBox="0 0 248 76" fill="none" xmlns="http://www.w3.org/2000/svg">
<path d="M65.2361 13.0759C71.2983 19.7314 75 28.6148 75 38.3715C75 59.0112 58.4345 75.743 38 75.743C17.5655 75.743 1 59.0112 1 38.3715C1 17.7318 17.5655 1 38 1C43.907 1 49.4907 2.39813 54.4444 4.88464" stroke="#427355" stroke-width="0.5"/>
<path d="M24.4707 24.999V24.2549C24.4707 24.0127 24.4492 23.7764 24.4062 23.5459C25.5039 23.6436 26.0527 23.7764 26.0527 23.9444C26.0527 24.0537 25.9121 24.1651 25.6309 24.2783V24.999H28.5605C29.0605 24.4561 29.3555 24.1846 29.4453 24.1846C29.5234 24.1846 29.7891 24.3721 30.2422 24.7471C30.4727 24.9463 30.5879 25.083 30.5879 25.1572C30.5879 25.2354 30.5352 25.2744 30.4297 25.2744H20.8086C20.5859 25.2744 20.3066 25.2979 19.9707 25.3447L19.8359 24.9053C20.1758 24.9678 20.4961 24.999 20.7969 24.999H24.4707ZM26.3164 32.7158H23.832V33.0029C23.832 33.1826 23.7773 33.3057 23.668 33.3721C23.5742 33.4307 23.418 33.46 23.1992 33.46C23.0195 33.46 22.9004 33.4268 22.8418 33.3604C22.791 33.3057 22.7656 33.2061 22.7656 33.0615L22.7891 31.4209C22.7891 30.9756 22.7734 30.5733 22.7422 30.2139C23.1484 30.3858 23.5391 30.5615 23.9141 30.7412H26.2344C26.5156 30.4365 26.6992 30.2842 26.7852 30.2842C26.8711 30.2842 27.082 30.4248 27.418 30.7061C27.5859 30.8506 27.6699 30.9619 27.6699 31.0401C27.6699 31.1416 27.5664 31.2608 27.3594 31.3975V31.626L27.3945 32.7861C27.3945 33.083 27.1914 33.2315 26.7852 33.2315C26.4727 33.2315 26.3164 33.1162 26.3164 32.8858V32.7158ZM26.3164 32.4404V31.0166H23.832V32.4404H26.3164ZM27.0488 28.374H23.1113V28.4678C23.1113 28.7647 22.8965 28.9131 22.4668 28.9131C22.1621 28.9131 22.0098 28.7725 22.0098 28.4912L22.0332 26.6924C22.0332 26.4932 22.0254 26.1709 22.0098 25.7256C22.3809 25.8779 22.7754 26.0694 23.1934 26.2998H26.9668C27.252 25.9483 27.4395 25.7725 27.5293 25.7725C27.6191 25.7725 27.8398 25.9092 28.1914 26.1826C28.375 26.3233 28.4668 26.4346 28.4668 26.5166C28.4668 26.6143 28.3574 26.7217 28.1387 26.8389V27.0908L28.1621 28.374C28.1621 28.5733 28.1055 28.7119 27.9922 28.7901C27.8906 28.8565 27.7285 28.8897 27.5059 28.8897C27.3262 28.8897 27.2031 28.8545 27.1367 28.7842C27.0781 28.7217 27.0488 28.6162 27.0488 28.4678V28.374ZM27.0488 28.0986V26.5752H23.1113V28.0986H27.0488ZM30.1953 29.6807C30.1953 29.8018 30.0664 29.9268 29.8086 30.0557V30.6416L29.8438 33.5947C29.8438 33.8408 29.8047 34.0303 29.7266 34.1631C29.6602 34.2764 29.5469 34.3779 29.3867 34.4678C29.1523 34.6045 28.8965 34.6729 28.6191 34.6729C28.5332 34.6729 28.4727 34.6514 28.4375 34.6084C28.4023 34.5615 28.3711 34.4717 28.3438 34.3389C28.3047 34.1279 28.2129 33.9697 28.0684 33.8643C27.9355 33.7705 27.6758 33.6611 27.2891 33.5361C27.2578 33.5244 27.2422 33.4971 27.2422 33.4541C27.2422 33.4111 27.2578 33.3897 27.2891 33.3897C27.8477 33.4365 28.2754 33.46 28.5723 33.46C28.6777 33.46 28.7305 33.4092 28.7305 33.3076V29.6807H21.541V34.1338C21.541 34.4776 21.3164 34.6494 20.8672 34.6494C20.6758 34.6494 20.5449 34.6104 20.4746 34.5322C20.416 34.4658 20.3867 34.3526 20.3867 34.1924L20.4277 30.208C20.4277 29.7354 20.4141 29.2686 20.3867 28.8076C20.8555 28.9951 21.2676 29.1944 21.623 29.4053H28.6484C28.9648 29.0615 29.1641 28.8897 29.2461 28.8897C29.3281 28.8897 29.5527 29.0342 29.9199 29.3233C30.1035 29.4834 30.1953 29.6026 30.1953 29.6807Z" fill="#427355"/>
<path d="M35.8086 30.7764H40.9297C41.2773 30.4014 41.498 30.2139 41.5918 30.2139C41.6738 30.2139 41.8945 30.3447 42.2539 30.6065C42.4375 30.7549 42.5293 30.8643 42.5293 30.9346C42.5293 31.0127 42.4766 31.0518 42.3711 31.0518H38.7148C39.0078 31.626 39.3711 32.0733 39.8047 32.3936C39.9844 32.1983 40.1641 31.9873 40.3438 31.7608C40.4453 31.624 40.5527 31.4404 40.666 31.21C41.4199 31.6123 41.7969 31.8604 41.7969 31.9541C41.7969 32.0479 41.6934 32.0947 41.4863 32.0947C41.4473 32.0947 41.4023 32.0908 41.3516 32.083C40.9414 32.2744 40.5137 32.4346 40.0684 32.5635C40.6934 32.958 41.6426 33.2334 42.916 33.3897C42.9473 33.3975 42.9629 33.4229 42.9629 33.4658C42.9629 33.5088 42.9473 33.5361 42.916 33.5479C42.6074 33.6611 42.3828 33.917 42.2422 34.3154C42.1914 34.499 42.1289 34.5908 42.0547 34.5908C41.9844 34.5908 41.8398 34.542 41.6211 34.4444C41.1289 34.2412 40.6602 33.9815 40.2148 33.6651C39.4258 33.0869 38.8379 32.2158 38.4512 31.0518H37.5488V33.2139C38.3105 33.1358 38.8535 33.0635 39.1777 32.9971C39.2207 32.9893 39.2422 33.0186 39.2422 33.085C39.2422 33.1123 39.2344 33.1319 39.2188 33.1436C38.2383 33.6436 37.1348 34.0342 35.9082 34.3154C35.834 34.5459 35.75 34.6611 35.6562 34.6611C35.582 34.6611 35.5215 34.5889 35.4746 34.4444C35.4434 34.3506 35.3438 33.9834 35.1758 33.3428C35.3203 33.3428 35.4258 33.3428 35.4922 33.3428C35.7656 33.3428 36.1113 33.3311 36.5293 33.3076V31.0518H35.7617C35.6797 31.4697 35.5879 31.8174 35.4863 32.0947C35.1465 33.0674 34.5684 33.8897 33.752 34.5615C33.7441 34.5654 33.7344 34.5674 33.7227 34.5674C33.6641 34.5674 33.6348 34.5401 33.6348 34.4854C33.6348 34.4776 33.6367 34.4697 33.6406 34.4619C34.1602 33.583 34.4941 32.7432 34.6426 31.9424C34.7715 31.2705 34.8359 30.3174 34.8359 29.083C34.8359 28.7822 34.8242 28.3936 34.8008 27.917C35.1445 28.0654 35.5605 28.2627 36.0488 28.5088H40.9824C41.3066 28.169 41.5098 27.999 41.5918 27.999C41.6738 27.999 41.9023 28.1162 42.2773 28.3506C42.4688 28.4795 42.5645 28.585 42.5645 28.667C42.5645 28.7451 42.5039 28.7842 42.3828 28.7842H35.9316V29.0713C35.916 29.7236 35.875 30.292 35.8086 30.7764ZM37.2793 24.8467V24.3428C37.2793 24.0654 37.2637 23.8252 37.2324 23.6221C38.0215 23.7002 38.416 23.7998 38.416 23.9209C38.416 23.9795 38.3184 24.0635 38.123 24.1729V24.8467H39.0195V24.3662C39.0195 24.0811 39.0078 23.8252 38.9844 23.5986C39.7891 23.6846 40.1914 23.7959 40.1914 23.9326C40.1914 23.999 40.0898 24.0791 39.8867 24.1729V24.8467H40.7246C40.9785 24.5264 41.1504 24.3662 41.2402 24.3662C41.3262 24.3662 41.5312 24.4932 41.8555 24.7471C42.0156 24.8838 42.0957 24.9932 42.0957 25.0752C42.0957 25.1572 41.9941 25.2686 41.791 25.4092V25.7549L41.8086 27.5303C41.8086 27.8115 41.6113 27.9522 41.2168 27.9522C40.9629 27.9522 40.8301 27.8643 40.8184 27.6885H36.4062C36.4062 27.9111 36.2188 28.0225 35.8438 28.0225C35.5742 28.0225 35.4395 27.9268 35.4395 27.7354L35.4629 26.417C35.4629 25.5772 35.4375 24.8819 35.3867 24.3311C35.7656 24.4639 36.1289 24.6358 36.4766 24.8467H37.2793ZM39.8867 27.4131H40.8184V26.3819H39.8867V27.4131ZM39.0195 27.4131V26.3819H38.123V27.4131H39.0195ZM37.2793 27.4131V26.3819H36.4062V27.4131H37.2793ZM39.8867 26.1065H40.8184V25.1221H39.8867V26.1065ZM39.0195 26.1065V25.1221H38.123V26.1065H39.0195ZM37.2793 26.1065V25.1221H36.4062V26.1065H37.2793ZM41.6797 29.792C41.6797 29.8701 41.625 29.9092 41.5156 29.9092H37.1855C36.9746 29.9092 36.707 29.9326 36.3828 29.9795L36.248 29.5401C36.5684 29.6026 36.873 29.6338 37.1621 29.6338H40.1621C40.4785 29.2901 40.6836 29.1182 40.7773 29.1182C40.8555 29.1182 41.0684 29.2412 41.416 29.4873C41.5918 29.6162 41.6797 29.7178 41.6797 29.792ZM34.6426 27.2315L33.3359 31.0986C33.2422 31.419 33.1953 31.6748 33.1953 31.8662C33.1953 32.0889 33.2617 32.3897 33.3945 32.7686C33.5391 33.167 33.6113 33.4756 33.6113 33.6944C33.6113 33.9639 33.5371 34.1807 33.3887 34.3447C33.2598 34.4854 33.0977 34.5557 32.9023 34.5557C32.5273 34.5557 32.3398 34.3428 32.3398 33.917C32.3398 33.7529 32.3613 33.5303 32.4043 33.249C32.4277 33.0772 32.4395 32.9131 32.4395 32.7569C32.4395 32.3428 32.377 32.0635 32.252 31.919C32.1426 31.7901 31.9102 31.669 31.5547 31.5557C31.5352 31.5479 31.5254 31.5244 31.5254 31.4854C31.5254 31.4033 31.5469 31.3662 31.5898 31.374C31.7617 31.3975 31.8945 31.4092 31.9883 31.4092C32.1602 31.4092 32.2871 31.3858 32.3691 31.3389C32.4434 31.2959 32.5156 31.2158 32.5859 31.0986C32.9375 30.5674 33.5703 29.2627 34.4844 27.1846C34.4922 27.169 34.5098 27.1611 34.5371 27.1611C34.6074 27.1611 34.6426 27.1807 34.6426 27.2197V27.2315ZM34.4316 25.1924C34.4316 25.3955 34.3691 25.5596 34.2441 25.6846C34.1309 25.7979 33.9883 25.8545 33.8164 25.8545C33.6172 25.8545 33.4199 25.6143 33.2246 25.1338C33.0605 24.7276 32.8105 24.3662 32.4746 24.0498C32.459 24.0381 32.4512 24.0244 32.4512 24.0088C32.4512 23.9736 32.4707 23.9561 32.5098 23.9561C33.1582 23.9951 33.6523 24.1397 33.9922 24.3897C34.2852 24.6045 34.4316 24.8721 34.4316 25.1924ZM33.5176 27.9404C33.5176 28.1358 33.4531 28.3018 33.3242 28.4385C33.2109 28.5557 33.0781 28.6143 32.9258 28.6143C32.7109 28.6143 32.5605 28.5029 32.4746 28.2803C32.3066 27.8584 32.1777 27.5772 32.0879 27.4365C31.9902 27.2881 31.8301 27.1084 31.6074 26.8975C31.5918 26.8858 31.584 26.874 31.584 26.8623C31.584 26.8233 31.6074 26.8037 31.6543 26.8037C32.3027 26.835 32.7891 26.9678 33.1133 27.2022C33.3828 27.3975 33.5176 27.6436 33.5176 27.9404Z" fill="#427355"/>
<path d="M45.834 26.9326H47.5273V26.669C47.5273 26.3252 47.5117 25.9893 47.4805 25.6611C48.1367 25.7236 48.541 25.7744 48.6934 25.8135C48.8184 25.8447 48.8809 25.8936 48.8809 25.96C48.8809 26.0381 48.7852 26.1299 48.5938 26.2354V26.9326H50.6914V26.5342C50.6914 26.3194 50.6797 26.0205 50.6562 25.6377C51.2344 25.6963 51.6152 25.751 51.7988 25.8018C51.9629 25.8447 52.0449 25.9072 52.0449 25.9893C52.0449 26.0674 51.9453 26.1631 51.7461 26.2764V26.9326H52.5371C52.9199 26.46 53.1602 26.2236 53.2578 26.2236C53.3359 26.2236 53.5898 26.3877 54.0195 26.7158C54.2344 26.8994 54.3418 27.0244 54.3418 27.0908C54.3418 27.169 54.2891 27.208 54.1836 27.208H51.7461C51.75 27.5791 51.7578 28.0049 51.7695 28.4854C51.7773 28.8252 51.7812 29.0264 51.7812 29.0889C51.7812 29.3858 51.5703 29.5342 51.1484 29.5342C50.957 29.5342 50.832 29.4971 50.7734 29.4229C50.7188 29.3565 50.6914 29.2373 50.6914 29.0654V29.0069H48.5938V29.124C48.5938 29.4365 48.3828 29.5928 47.9609 29.5928C47.6562 29.5928 47.5039 29.4483 47.5039 29.1592L47.5273 27.208H45.834C45.7988 28.751 45.6621 30.0264 45.4238 31.0342C45.1309 32.2178 44.5723 33.3604 43.748 34.4619C43.7402 34.4736 43.7285 34.4795 43.7129 34.4795C43.6465 34.4795 43.6133 34.4522 43.6133 34.3975C43.6133 34.3897 43.6152 34.3838 43.6191 34.3799C44.0645 33.1924 44.3633 31.8682 44.5156 30.4072C44.6094 29.4111 44.6562 28.2647 44.6562 26.9678C44.6562 26.1123 44.6211 25.249 44.5508 24.3779C44.9258 24.5186 45.3809 24.7315 45.916 25.0166H48.8926V24.2725C48.8926 24.1201 48.8691 23.8838 48.8223 23.5635C49.8848 23.669 50.416 23.8057 50.416 23.9736C50.416 24.0986 50.2793 24.21 50.0059 24.3076V25.0166H52.625C53.0469 24.5205 53.3066 24.2725 53.4043 24.2725C53.4863 24.2725 53.7578 24.4444 54.2188 24.7881C54.4609 24.9717 54.582 25.1006 54.582 25.1748C54.582 25.2529 54.5293 25.292 54.4238 25.292H45.8457V26.2998C45.8457 26.585 45.8418 26.7959 45.834 26.9326ZM48.5938 28.7315H50.6914V27.208H48.5938V28.7315ZM50.7207 32.6104C51.7246 32.9932 53.0645 33.2549 54.7402 33.3955C54.7637 33.3955 54.7754 33.4111 54.7754 33.4424C54.7754 33.4932 54.7559 33.5225 54.7168 33.5303C54.4902 33.6006 54.3223 33.7022 54.2129 33.835C54.123 33.9483 54.0352 34.1377 53.9492 34.4033C53.9062 34.5322 53.8301 34.5967 53.7207 34.5967C53.6074 34.5967 53.3594 34.5479 52.9766 34.4502C51.8242 34.1651 50.8555 33.7783 50.0703 33.2901C50.0547 33.2783 50.0234 33.2569 49.9766 33.2256C49.9414 33.2022 49.9141 33.1846 49.8945 33.1729C48.6523 33.9033 47.0078 34.374 44.9609 34.585C44.9102 34.5967 44.8848 34.5518 44.8848 34.4502C44.8848 34.4151 44.8945 34.3955 44.9141 34.3916C46.6875 33.9151 48.0957 33.3115 49.1387 32.5811C48.6152 32.1201 48.1152 31.4248 47.6387 30.4951H46.918C46.6992 30.4951 46.4629 30.5264 46.209 30.5889L46.0742 30.126C46.375 30.1885 46.6562 30.2197 46.918 30.2197H51.248C51.623 29.8447 51.8496 29.6572 51.9277 29.6572C52.0215 29.6572 52.2578 29.833 52.6367 30.1846C52.8359 30.3643 52.9355 30.4951 52.9355 30.5772C52.9355 30.667 52.8965 30.7354 52.8184 30.7822C52.7402 30.8252 52.5762 30.8779 52.3262 30.9404C51.8301 31.5928 51.2949 32.1494 50.7207 32.6104ZM49.7129 32.1416C50.2715 31.6768 50.7832 31.1279 51.248 30.4951H47.9258C48.4453 31.1944 49.041 31.7432 49.7129 32.1416Z" fill="#427355"/>
<path d="M21.5527 49.3662C21.0098 49.3506 20.2383 49.3428 19.2383 49.3428C18.1836 49.3428 17.3926 49.3506 16.8652 49.3662C16.7949 49.3662 16.752 49.3545 16.7363 49.3311C16.7168 49.3037 16.707 49.2471 16.707 49.1611C16.707 49.0322 16.7305 48.9209 16.7773 48.8272C17.2539 47.9639 17.9551 46.9385 18.8809 45.751C19.5566 44.8838 19.9668 44.3194 20.1113 44.0576C20.3535 43.6201 20.4746 43.1651 20.4746 42.6924C20.4746 42.1377 20.377 41.708 20.1816 41.4033C19.998 41.1182 19.752 40.9756 19.4434 40.9756C18.959 40.9756 18.627 41.208 18.4473 41.6729C18.377 41.8526 18.3418 42.1455 18.3418 42.5518C18.3418 42.7236 18.2344 42.8662 18.0195 42.9795C17.8477 43.0694 17.6543 43.1143 17.4395 43.1143C17.0566 43.1143 16.8652 42.9619 16.8652 42.6572C16.8652 42.3877 16.9688 42.0986 17.1758 41.7901C17.4023 41.4541 17.6973 41.1826 18.0605 40.9756C18.4824 40.7373 18.9434 40.6182 19.4434 40.6182C20.2754 40.6182 20.9199 40.8526 21.377 41.3213C21.7441 41.7041 21.9277 42.1768 21.9277 42.7393C21.9277 43.4307 21.6641 44.0537 21.1367 44.6084C20.9727 44.7803 20.6992 45.0303 20.3164 45.3584C20.0039 45.6279 19.7695 45.835 19.6133 45.9795C18.9375 46.5928 18.4648 47.0557 18.1953 47.3682C17.9883 47.6026 17.7969 47.8721 17.6211 48.1768H19.7422C20.2578 48.1768 20.6152 48.1533 20.8145 48.1065C20.9746 48.0674 21.1133 47.9951 21.2305 47.8897C21.4609 47.6748 21.6797 47.3662 21.8867 46.9639C21.918 46.9092 21.9531 46.8819 21.9922 46.8819C22.0117 46.8819 22.041 46.8877 22.0801 46.8994C22.1621 46.9268 22.2031 46.9678 22.2031 47.0225C22.2031 47.0342 22.2031 47.0459 22.2031 47.0576C22.0195 47.8272 21.8027 48.5967 21.5527 49.3662Z" fill="#427355"/>
<path d="M25.7188 40.6182C26.6055 40.6182 27.2891 41.0733 27.7695 41.9834C28.1797 42.7686 28.3848 43.8018 28.3848 45.083C28.3848 46.5674 28.1172 47.7119 27.582 48.5166C27.1133 49.2276 26.4922 49.583 25.7188 49.583C24.8047 49.583 24.1133 49.1397 23.6445 48.2529C23.2383 47.4873 23.0352 46.4541 23.0352 45.1533C23.0352 43.6455 23.3008 42.4873 23.832 41.6787C24.3008 40.9717 24.9297 40.6182 25.7188 40.6182ZM25.7188 40.9873C25.207 40.9873 24.8535 41.4111 24.6582 42.2588C24.5137 42.8916 24.4414 43.8447 24.4414 45.1182C24.4414 46.5713 24.5391 47.6123 24.7344 48.2412C24.9375 48.8897 25.2656 49.2139 25.7188 49.2139C26.2188 49.2139 26.5664 48.794 26.7617 47.9541C26.9062 47.3213 26.9785 46.376 26.9785 45.1182C26.9785 43.6533 26.8828 42.6045 26.6914 41.9717C26.4922 41.3154 26.168 40.9873 25.7188 40.9873Z" fill="#427355"/>
<path d="M31.9883 40.6182C32.875 40.6182 33.5586 41.0733 34.0391 41.9834C34.4492 42.7686 34.6543 43.8018 34.6543 45.083C34.6543 46.5674 34.3867 47.7119 33.8516 48.5166C33.3828 49.2276 32.7617 49.583 31.9883 49.583C31.0742 49.583 30.3828 49.1397 29.9141 48.2529C29.5078 47.4873 29.3047 46.4541 29.3047 45.1533C29.3047 43.6455 29.5703 42.4873 30.1016 41.6787C30.5703 40.9717 31.1992 40.6182 31.9883 40.6182ZM31.9883 40.9873C31.4766 40.9873 31.123 41.4111 30.9277 42.2588C30.7832 42.8916 30.7109 43.8447 30.7109 45.1182C30.7109 46.5713 30.8086 47.6123 31.0039 48.2412C31.207 48.8897 31.5352 49.2139 31.9883 49.2139C32.4883 49.2139 32.8359 48.794 33.0312 47.9541C33.1758 47.3213 33.248 46.376 33.248 45.1182C33.248 43.6533 33.1523 42.6045 32.9609 41.9717C32.7617 41.3154 32.4375 40.9873 31.9883 40.9873Z" fill="#427355"/>
<path d="M38.2578 40.6182C39.1445 40.6182 39.8281 41.0733 40.3086 41.9834C40.7188 42.7686 40.9238 43.8018 40.9238 45.083C40.9238 46.5674 40.6562 47.7119 40.1211 48.5166C39.6523 49.2276 39.0312 49.583 38.2578 49.583C37.3438 49.583 36.6523 49.1397 36.1836 48.2529C35.7773 47.4873 35.5742 46.4541 35.5742 45.1533C35.5742 43.6455 35.8398 42.4873 36.3711 41.6787C36.8398 40.9717 37.4688 40.6182 38.2578 40.6182ZM38.2578 40.9873C37.7461 40.9873 37.3926 41.4111 37.1973 42.2588C37.0527 42.8916 36.9805 43.8447 36.9805 45.1182C36.9805 46.5713 37.0781 47.6123 37.2734 48.2412C37.4766 48.8897 37.8047 49.2139 38.2578 49.2139C38.7578 49.2139 39.1055 48.794 39.3008 47.9541C39.4453 47.3213 39.5176 46.376 39.5176 45.1182C39.5176 43.6533 39.4219 42.6045 39.2305 41.9717C39.0312 41.3154 38.707 40.9873 38.2578 40.9873Z" fill="#427355"/>
<path d="M47.2109 44.9014C47.668 44.1084 48.291 43.7119 49.0801 43.7119C49.4746 43.7119 49.8301 43.8252 50.1465 44.0518C50.5723 44.3526 50.7852 44.8115 50.7852 45.4287L50.7734 46.7647V47.5908C50.7734 48.3174 50.8008 48.7412 50.8555 48.8623C50.9023 48.9444 50.9941 49.0029 51.1309 49.0381C51.1855 49.0498 51.3184 49.0674 51.5293 49.0908C51.5918 49.1026 51.623 49.1455 51.623 49.2197C51.623 49.3174 51.5918 49.3662 51.5293 49.3662L50.2109 49.3311C50.0391 49.3311 49.7969 49.335 49.4844 49.3428C49.1172 49.3545 48.8945 49.3623 48.8164 49.3662C48.7461 49.3662 48.7109 49.3174 48.7109 49.2197C48.7109 49.1338 48.7461 49.0908 48.8164 49.0908C49.0469 49.0674 49.1875 49.0459 49.2383 49.0264C49.332 48.999 49.4004 48.9444 49.4434 48.8623C49.5059 48.7334 49.5371 48.3096 49.5371 47.5908V45.9561C49.5371 45.4951 49.4922 45.1514 49.4023 44.9248C49.2578 44.5225 48.9785 44.3213 48.5645 44.3213C48.1465 44.3213 47.8027 44.5498 47.5332 45.0069C47.3652 45.2803 47.2812 45.5928 47.2812 45.9444V47.5908C47.2812 48.3174 47.3086 48.7412 47.3633 48.8623C47.4023 48.9483 47.4902 49.0069 47.627 49.0381C47.6895 49.0498 47.8301 49.0674 48.0488 49.0908C48.1035 49.0986 48.1309 49.1455 48.1309 49.2315C48.1309 49.3213 48.0996 49.3662 48.0371 49.3662C48.0137 49.3662 47.7695 49.3584 47.3047 49.3428C47.0586 49.335 46.8633 49.3311 46.7188 49.3311C46.5391 49.3311 46.2969 49.335 45.9922 49.3428C45.6172 49.3584 45.4023 49.3662 45.3477 49.3662C45.2773 49.3662 45.2422 49.3174 45.2422 49.2197C45.2422 49.1338 45.2773 49.0908 45.3477 49.0908C45.5547 49.0752 45.6914 49.0557 45.7578 49.0322C45.8516 49.001 45.9199 48.9444 45.9629 48.8623C46.0254 48.7334 46.0566 48.3096 46.0566 47.5908V45.9561V45.7158C46.0566 45.3994 46.0117 45.1358 45.9219 44.9248C45.7695 44.5225 45.4863 44.3213 45.0723 44.3213C44.6699 44.3213 44.334 44.5498 44.0645 45.0069C43.8887 45.2998 43.8008 45.6201 43.8008 45.9678V47.5908C43.8008 48.3369 43.8242 48.7608 43.8711 48.8623C43.9102 48.9522 43.998 49.0108 44.1348 49.0381C44.1738 49.0459 44.3105 49.0635 44.5449 49.0908C44.6074 49.1026 44.6387 49.1533 44.6387 49.2432C44.6387 49.3252 44.6074 49.3662 44.5449 49.3662C43.666 49.3428 43.2227 49.3311 43.2148 49.3311C43.0391 49.3311 42.8027 49.335 42.5059 49.3428C42.1465 49.3584 41.9336 49.3662 41.8672 49.3662C41.7969 49.3662 41.7617 49.3213 41.7617 49.2315C41.7617 49.1455 41.7969 49.0986 41.8672 49.0908C42.0977 49.0674 42.2383 49.0459 42.2891 49.0264C42.3867 48.999 42.457 48.9444 42.5 48.8623C42.5586 48.7608 42.5879 48.5225 42.5879 48.1475V47.5908V45.8154C42.5879 45.2959 42.5605 44.9639 42.5059 44.8194C42.4434 44.6514 42.3301 44.5674 42.166 44.5674C42.1309 44.5674 42.1035 44.5674 42.084 44.5674L41.7969 44.5908C41.7695 44.5908 41.75 44.5908 41.7383 44.5908C41.6797 44.5908 41.6465 44.5459 41.6387 44.4561C41.6387 44.4365 41.6387 44.417 41.6387 44.3975C41.6387 44.335 41.6836 44.294 41.7734 44.2744C42.3906 44.1416 43.0312 43.9658 43.6953 43.7471C43.7812 43.7471 43.8242 43.7803 43.8242 43.8467C43.8086 44.2959 43.8008 44.6319 43.8008 44.8545C44 44.4717 44.2715 44.1768 44.6152 43.9697C44.9004 43.7979 45.1934 43.7119 45.4941 43.7119C45.9082 43.7119 46.2656 43.8115 46.5664 44.0108C46.875 44.2178 47.0898 44.5147 47.2109 44.9014Z" fill="#427355"/>
<path d="M53.498 49.3779C52.8691 49.2022 52.5547 48.9014 52.5547 48.4756C52.5547 48.2217 52.6777 47.9951 52.9238 47.7959C53.127 47.6319 53.4395 47.4619 53.8613 47.2861C52.8535 47.0166 52.3496 46.4541 52.3496 45.5986C52.3496 45.0479 52.5781 44.5869 53.0352 44.2158C53.4492 43.8799 53.957 43.7119 54.5586 43.7119C55.0078 43.7119 55.4473 43.8076 55.877 43.999C56.5098 43.999 57.1543 43.9678 57.8105 43.9053C57.8652 43.9053 57.8926 43.9326 57.8926 43.9873L57.7227 44.3623C57.6953 44.417 57.6641 44.4444 57.6289 44.4444C57.3398 44.4209 56.9199 44.4092 56.3691 44.4092C56.7363 44.7139 56.9199 45.0947 56.9199 45.5518C56.9199 46.1299 56.7109 46.585 56.293 46.917C55.8984 47.2295 55.3672 47.3858 54.6992 47.3858C54.5859 47.3858 54.4492 47.3779 54.2891 47.3623C53.8867 47.6006 53.6855 47.8447 53.6855 48.0947C53.6855 48.3486 53.9238 48.4756 54.4004 48.4756L55.502 48.4639C57.0566 48.4483 57.834 48.9834 57.834 50.0694C57.834 50.7178 57.5996 51.2295 57.1309 51.6045C56.5957 52.0303 55.7852 52.2432 54.6992 52.2432C53.875 52.2432 53.2246 52.0791 52.748 51.751C52.3613 51.4854 52.168 51.1651 52.168 50.7901C52.168 50.4424 52.2891 50.1533 52.5312 49.9229C52.7422 49.7236 53.0645 49.542 53.498 49.3779ZM53.9199 49.4717C53.7988 49.5654 53.7148 49.6377 53.668 49.6885C53.4531 49.9697 53.3457 50.2822 53.3457 50.626C53.3457 51.0244 53.5098 51.3408 53.8379 51.5752C54.1309 51.7822 54.5039 51.8858 54.957 51.8858C55.5508 51.8858 56.0098 51.7412 56.334 51.4522C56.6074 51.21 56.7441 50.8975 56.7441 50.5147C56.7441 50.1826 56.6465 49.9424 56.4512 49.794C56.209 49.6104 55.7969 49.5186 55.2148 49.5186H54.7344C54.5117 49.5186 54.2402 49.5029 53.9199 49.4717ZM54.6523 44.0459C54.3086 44.0459 54.0449 44.2061 53.8613 44.5264C53.709 44.7959 53.6328 45.1397 53.6328 45.5576C53.6328 46.0537 53.7344 46.4385 53.9375 46.7119C54.1211 46.9541 54.3594 47.0752 54.6523 47.0752C54.9805 47.0752 55.2344 46.9209 55.4141 46.6123C55.5703 46.3428 55.6484 45.9912 55.6484 45.5576C55.6484 45.0733 55.5469 44.6924 55.3438 44.4151C55.1641 44.169 54.9336 44.0459 54.6523 44.0459Z" fill="#427355"/>
<path d="M151.236 12.9127C157.298 19.4783 161 28.2417 161 37.8665C161 58.2273 144.435 74.733 124 74.733C103.565 74.733 87 58.2273 87 37.8665C87 17.5057 103.565 1 124 1C129.907 1 135.491 2.37924 140.444 4.83215" stroke="#427355" stroke-width="0.5"/>
<path d="M118.57 23.6375C117.906 24.7664 117.072 25.7117 116.068 26.4734C115.205 27.1297 114.172 27.6824 112.969 28.1317C112.965 28.1356 112.959 28.1375 112.951 28.1375C112.896 28.1375 112.869 28.1082 112.869 28.0496C112.869 28.034 112.875 28.0223 112.887 28.0145C114.32 27.1199 115.52 25.9813 116.484 24.5984C116.977 23.8875 117.34 23.1883 117.574 22.5008C118.453 22.7742 118.957 22.9402 119.086 22.9988C119.199 23.0457 119.256 23.1043 119.256 23.1746C119.256 23.2723 119.084 23.3641 118.74 23.45C119.463 24.4422 120.314 25.2254 121.295 25.7996C122.15 26.3035 123.139 26.6512 124.26 26.8426C124.291 26.8504 124.307 26.8777 124.307 26.9246C124.307 26.9676 124.291 26.993 124.26 27.0008C123.869 27.0594 123.59 27.3953 123.422 28.0086C123.379 28.1531 123.311 28.2254 123.217 28.2254C123.146 28.2254 122.998 28.1649 122.771 28.0438C122.166 27.7117 121.566 27.284 120.973 26.7606C120.453 26.2996 120.006 25.8172 119.631 25.3133C119.303 24.8758 118.949 24.3172 118.57 23.6375ZM117.656 32.7488V30.2176H115.506C115.311 30.2176 115.062 30.241 114.762 30.2879L114.633 29.8484C114.941 29.9109 115.232 29.9422 115.506 29.9422H117.656V27.7098H115.975C115.775 27.7098 115.52 27.7332 115.207 27.7801L115.078 27.3348C115.395 27.4012 115.693 27.4344 115.975 27.4344H119.748C120.139 26.9109 120.387 26.6492 120.492 26.6492C120.566 26.6492 120.814 26.8309 121.236 27.1942C121.451 27.3856 121.559 27.5164 121.559 27.5867C121.559 27.6688 121.506 27.7098 121.4 27.7098H118.834V29.9422H120.381C120.799 29.3992 121.059 29.1277 121.16 29.1277C121.238 29.1277 121.504 29.3192 121.957 29.702C122.18 29.8934 122.291 30.0262 122.291 30.1004C122.291 30.1785 122.238 30.2176 122.133 30.2176H118.834V32.7488H121.775C122.24 32.1668 122.523 31.8758 122.625 31.8758C122.707 31.8758 122.98 32.0789 123.445 32.4852C123.676 32.6961 123.791 32.8367 123.791 32.907C123.791 32.9852 123.738 33.0242 123.633 33.0242H114.105C113.875 33.0242 113.586 33.0477 113.238 33.0945L113.109 32.6551C113.449 32.7176 113.773 32.7488 114.082 32.7488H117.656Z" fill="#427355"/>
<path d="M129.768 30.6219V27.7918H128.385C128.186 27.7918 127.943 27.8152 127.658 27.8621L127.523 27.4227C127.82 27.4852 128.096 27.5164 128.35 27.5164H129.768V25.3192H128.098C127.898 25.3192 127.643 25.3426 127.33 25.3895L127.201 24.95C127.521 25.0125 127.816 25.0438 128.086 25.0438H132.088C132.463 24.6024 132.699 24.3817 132.797 24.3817C132.879 24.3817 133.127 24.5379 133.541 24.8504C133.748 25.0145 133.852 25.1317 133.852 25.202C133.852 25.2801 133.799 25.3192 133.693 25.3192H130.898V27.5164H131.859C132.176 27.075 132.387 26.8543 132.492 26.8543C132.57 26.8543 132.803 27.0067 133.189 27.3113C133.389 27.4754 133.488 27.5965 133.488 27.6746C133.488 27.7527 133.438 27.7918 133.336 27.7918H130.898V30.6219H132.387C132.711 30.1492 132.928 29.9129 133.037 29.9129C133.119 29.9129 133.359 30.0809 133.758 30.4168C133.957 30.5809 134.057 30.702 134.057 30.7801C134.057 30.8582 134.004 30.8973 133.898 30.8973H127.91C127.707 30.8973 127.463 30.9207 127.178 30.9676L127.043 30.5281C127.344 30.5906 127.627 30.6219 127.893 30.6219H129.768ZM133.055 29.3563C133.055 29.5281 132.996 29.6707 132.879 29.784C132.781 29.8817 132.66 29.9305 132.516 29.9305C132.395 29.9305 132.301 29.8973 132.234 29.8309C132.18 29.7684 132.125 29.6609 132.07 29.5086C131.883 29.0242 131.629 28.6453 131.309 28.3719C131.297 28.3602 131.291 28.3484 131.291 28.3367C131.291 28.3016 131.312 28.284 131.355 28.284C131.359 28.284 131.365 28.284 131.373 28.284C132.494 28.4832 133.055 28.8406 133.055 29.3563ZM126.639 32.5672V32.866C126.639 33.1863 126.406 33.3465 125.941 33.3465C125.621 33.3465 125.461 33.2137 125.461 32.9481C125.512 31.4285 125.537 29.3582 125.537 26.7371C125.537 25.1238 125.516 23.7469 125.473 22.6063C125.938 22.8094 126.387 23.0418 126.82 23.3035H134.203C134.566 22.8973 134.791 22.6942 134.877 22.6942C134.967 22.6942 135.195 22.8543 135.562 23.1746C135.746 23.3465 135.838 23.4695 135.838 23.5438C135.838 23.657 135.719 23.784 135.48 23.9246V25.3895C135.48 28.2957 135.504 30.7684 135.551 32.8074C135.551 33.1356 135.311 33.2996 134.83 33.2996C134.502 33.2996 134.338 33.1707 134.338 32.9129V32.5672H126.639ZM134.338 32.2918V23.5789H126.639V32.2918H134.338Z" fill="#427355"/>
<path d="M108.387 41.3426C108.387 41.909 108.338 42.5692 108.24 43.3231H110.074C110.48 42.8192 110.732 42.5672 110.83 42.5672C110.912 42.5672 111.172 42.743 111.609 43.0945C111.836 43.2742 111.949 43.4031 111.949 43.4813C111.949 43.5594 111.896 43.5984 111.791 43.5984H108.193C108.139 43.9109 108.062 44.1942 107.965 44.4481C109.191 44.866 110.057 45.2703 110.561 45.6609C111.014 46.0047 111.24 46.3777 111.24 46.7801C111.24 47.0067 111.172 47.1902 111.035 47.3309C110.918 47.452 110.777 47.5125 110.613 47.5125C110.484 47.5125 110.379 47.4676 110.297 47.3777C110.227 47.3035 110.072 47.0887 109.834 46.7332C109.334 45.9832 108.684 45.3016 107.883 44.6883C107.586 45.4383 107.131 46.0418 106.518 46.4988C105.994 46.8895 105.311 47.2059 104.467 47.4481C104.408 47.4598 104.379 47.4285 104.379 47.3543C104.379 47.3387 104.385 47.325 104.396 47.3133C105.248 46.7977 105.877 46.2488 106.283 45.6668C106.674 45.1121 106.941 44.4227 107.086 43.5984H105.182C105.002 43.5984 104.773 43.6219 104.496 43.6688L104.367 43.2293C104.652 43.2918 104.924 43.3231 105.182 43.3231H107.139C107.209 42.7567 107.244 42.0965 107.244 41.3426H105.539C105.359 41.3426 105.131 41.366 104.854 41.4129L104.725 40.9734C105.014 41.0359 105.285 41.0672 105.539 41.0672H108.182C108.404 40.6297 108.596 40.1414 108.756 39.6024C108.881 39.2039 108.977 38.8035 109.043 38.4012C109.684 38.6317 110.09 38.7918 110.262 38.8817C110.418 38.9637 110.496 39.0438 110.496 39.1219C110.496 39.2391 110.34 39.3074 110.027 39.327C109.613 39.9676 109.133 40.5477 108.586 41.0672H109.898C110.27 40.618 110.506 40.3934 110.607 40.3934C110.686 40.3934 110.924 40.5535 111.322 40.8738C111.525 41.0262 111.627 41.1414 111.627 41.2195C111.627 41.3016 111.574 41.3426 111.469 41.3426H108.387ZM103.682 40.4051C103.682 40.6317 103.615 40.8113 103.482 40.9442C103.365 41.0652 103.211 41.1258 103.02 41.1258C102.871 41.1258 102.754 41.0692 102.668 40.9559C102.59 40.8465 102.512 40.6551 102.434 40.3817C102.262 39.784 102.006 39.3172 101.666 38.9813C101.658 38.9695 101.654 38.9578 101.654 38.9461C101.654 38.8953 101.686 38.8699 101.748 38.8699C101.752 38.8699 101.758 38.8699 101.766 38.8699C103.043 39.1863 103.682 39.6981 103.682 40.4051ZM107.379 40.0242C107.379 40.2508 107.312 40.4344 107.18 40.575C107.062 40.6961 106.92 40.7567 106.752 40.7567C106.611 40.7567 106.512 40.7059 106.453 40.6043C106.406 40.5223 106.33 40.3055 106.225 39.9539C106.068 39.4656 105.838 39.0692 105.533 38.7645C105.521 38.7527 105.516 38.7391 105.516 38.7234C105.516 38.6453 105.549 38.6141 105.615 38.6297C106.791 38.9539 107.379 39.4188 107.379 40.0242ZM112.213 48.0516C111.943 48.1883 111.787 48.4129 111.744 48.7254C111.725 48.9207 111.697 49.0399 111.662 49.0828C111.631 49.1219 111.562 49.1453 111.457 49.1531C110.91 49.2274 109.934 49.2645 108.527 49.2645C106.844 49.2645 105.66 49.1199 104.977 48.8309C104.543 48.6434 104.197 48.3758 103.939 48.0281C103.725 47.7352 103.543 47.3504 103.395 46.8738C103.047 47.4715 102.586 48.0711 102.012 48.6727C102.023 48.7586 102.029 48.8309 102.029 48.8895C102.029 49.116 101.957 49.2293 101.812 49.2293C101.641 49.2293 101.344 48.741 100.922 47.7645C101.215 47.6863 101.516 47.5731 101.824 47.4246C102.113 47.2957 102.377 47.1492 102.615 46.9852V43.7801H101.783C101.58 43.7801 101.361 43.8113 101.127 43.8738L100.992 43.3934C101.262 43.4676 101.525 43.5047 101.783 43.5047H102.539C102.863 43.1375 103.068 42.9539 103.154 42.9539C103.236 42.9539 103.455 43.0926 103.811 43.3699C103.994 43.5223 104.086 43.6395 104.086 43.7215C104.086 43.7801 103.967 43.907 103.729 44.1024V46.9324C103.92 47.2606 104.1 47.493 104.268 47.6297C104.416 47.7547 104.615 47.8602 104.865 47.9461C105.467 48.1297 106.375 48.2215 107.59 48.2215C108.848 48.2215 110.385 48.1199 112.201 47.9168C112.232 47.909 112.248 47.9285 112.248 47.9754C112.248 48.0145 112.236 48.0399 112.213 48.0516Z" fill="#427355"/>
<path d="M115.189 44.9344C114.467 46.1336 113.719 47.0164 112.945 47.5828C112.938 47.5867 112.928 47.5887 112.916 47.5887C112.865 47.5887 112.84 47.5633 112.84 47.5125C112.84 47.5008 112.844 47.491 112.852 47.4832C113.809 46.1942 114.537 44.6766 115.037 42.9305H113.953C113.762 42.9305 113.521 42.9539 113.232 43.0008L113.104 42.5555C113.393 42.618 113.66 42.6492 113.906 42.6492H115.131V40.1297C115.131 39.4188 115.115 38.8777 115.084 38.5067C115.787 38.6082 116.205 38.6805 116.338 38.7234C116.459 38.7586 116.52 38.8192 116.52 38.9051C116.52 38.9949 116.396 39.0984 116.15 39.2156V42.6492H116.725C117.021 42.243 117.223 42.0399 117.328 42.0399C117.402 42.0399 117.609 42.1824 117.949 42.4676C118.125 42.6199 118.213 42.7332 118.213 42.8074C118.213 42.8895 118.162 42.9305 118.061 42.9305H116.15V43.8211C117.318 44.1141 117.902 44.577 117.902 45.2098C117.902 45.3699 117.842 45.5106 117.721 45.6317C117.619 45.7332 117.508 45.784 117.387 45.784C117.227 45.784 117.107 45.7469 117.029 45.6727C116.939 45.5906 116.863 45.4402 116.801 45.2215C116.691 44.8231 116.475 44.4559 116.15 44.1199V44.1551L116.186 49.0594C116.186 49.3797 115.963 49.5399 115.518 49.5399C115.205 49.5399 115.049 49.4109 115.049 49.1531C115.049 49.075 115.072 48.4774 115.119 47.3602C115.158 46.3797 115.182 45.5711 115.189 44.9344ZM122.561 45.3856L122.672 45.3621C122.945 44.8192 123.129 44.5477 123.223 44.5477C123.305 44.5477 123.545 44.6727 123.943 44.9227C124.135 45.0399 124.23 45.1395 124.23 45.2215C124.23 45.2918 124.186 45.3387 124.096 45.3621L122.561 45.6492C122.564 46.0164 122.576 46.7684 122.596 47.9051C122.604 48.4481 122.607 48.8133 122.607 49.0008C122.607 49.3445 122.375 49.5164 121.91 49.5164C121.566 49.5164 121.395 49.3758 121.395 49.0945L121.412 45.866L118.482 46.4227C118.236 46.4656 117.955 46.5496 117.639 46.6746L117.416 46.241C117.74 46.241 118.059 46.2117 118.371 46.1531L121.412 45.5906C121.42 44.7742 121.424 43.2098 121.424 40.8973C121.424 39.9793 121.402 39.2274 121.359 38.6414C122.023 38.7078 122.457 38.7703 122.66 38.8289C122.844 38.8836 122.936 38.9578 122.936 39.0516C122.936 39.1375 122.803 39.2449 122.537 39.3738V41.2957C122.537 42.5535 122.545 43.9168 122.561 45.3856ZM120.855 41.2254C120.855 41.4246 120.791 41.5848 120.662 41.7059C120.549 41.8152 120.41 41.8699 120.246 41.8699C120.102 41.8699 119.996 41.825 119.93 41.7352C119.875 41.6609 119.773 41.4578 119.625 41.1258C119.438 40.7078 119.148 40.3641 118.758 40.0945C118.742 40.0828 118.734 40.0672 118.734 40.0477C118.734 40.0086 118.754 39.9891 118.793 39.9891C120.168 40.1102 120.855 40.5223 120.855 41.2254ZM120.445 44.032C120.445 44.2469 120.385 44.4188 120.264 44.5477C120.158 44.6609 120.027 44.7176 119.871 44.7176C119.73 44.7176 119.623 44.6844 119.549 44.618C119.482 44.5555 119.422 44.4481 119.367 44.2957C119.254 43.9871 119.117 43.7332 118.957 43.534C118.82 43.3582 118.617 43.159 118.348 42.9363C118.332 42.9285 118.324 42.9149 118.324 42.8953C118.324 42.8524 118.348 42.8309 118.395 42.8309C119.762 42.9598 120.445 43.3602 120.445 44.032ZM114.797 41.3895C114.797 41.6043 114.744 41.7801 114.639 41.9168C114.545 42.0379 114.43 42.0984 114.293 42.0984C114.129 42.0984 114.018 42.0399 113.959 41.9227C113.904 41.8133 113.857 41.5965 113.818 41.2723C113.756 40.5887 113.604 40.0164 113.361 39.5555C113.357 39.5477 113.355 39.5399 113.355 39.532C113.355 39.4852 113.379 39.4617 113.426 39.4617C113.438 39.4617 113.447 39.4656 113.455 39.4734C114.35 40.1336 114.797 40.7723 114.797 41.3895ZM118.395 40.0711C118.395 40.2078 118.242 40.2918 117.938 40.3231C117.555 40.9715 117.096 41.575 116.561 42.1336C116.553 42.1453 116.539 42.1512 116.52 42.1512C116.465 42.1512 116.438 42.1297 116.438 42.0867C116.438 42.0828 116.439 42.077 116.443 42.0692C116.635 41.5692 116.809 41.0008 116.965 40.3641C117.051 39.9852 117.107 39.6688 117.135 39.4149C117.975 39.7391 118.395 39.9578 118.395 40.0711Z" fill="#427355"/>
<path d="M127.652 40.2293H133.676C134.047 39.741 134.283 39.4969 134.385 39.4969C134.463 39.4969 134.725 39.6688 135.17 40.0125C135.393 40.1922 135.504 40.3172 135.504 40.3875C135.504 40.4656 135.451 40.5047 135.346 40.5047H133.857V43.0477H134.203C134.609 42.5516 134.863 42.3035 134.965 42.3035C135.039 42.3035 135.287 42.4793 135.709 42.8309C135.916 43.0027 136.02 43.1277 136.02 43.2059C136.02 43.284 135.967 43.3231 135.861 43.3231H133.857V45.9305H134.004C134.387 45.4109 134.631 45.1512 134.736 45.1512C134.814 45.1512 135.062 45.3309 135.48 45.6902C135.695 45.8856 135.803 46.0164 135.803 46.0828C135.803 46.1649 135.75 46.2059 135.645 46.2059H126.188C125.988 46.2059 125.732 46.2293 125.42 46.2762L125.291 45.8309C125.611 45.8973 125.91 45.9305 126.188 45.9305H126.814V43.3231H125.977C125.793 43.3231 125.557 43.3465 125.268 43.3934L125.133 42.9539C125.434 43.0164 125.715 43.0477 125.977 43.0477H126.814V41.1375C126.393 41.5125 125.869 41.868 125.244 42.2039C125.24 42.2078 125.234 42.2098 125.227 42.2098C125.164 42.2098 125.133 42.1785 125.133 42.116C125.133 42.1043 125.137 42.0945 125.145 42.0867C125.852 41.3719 126.412 40.5926 126.826 39.7488C127.068 39.2879 127.244 38.8309 127.354 38.3777C127.959 38.5535 128.365 38.6922 128.572 38.7938C128.744 38.8797 128.83 38.9656 128.83 39.0516C128.83 39.2 128.643 39.2957 128.268 39.3387C128.049 39.6824 127.844 39.9793 127.652 40.2293ZM132.791 45.9305V43.3231H131.83V45.9305H132.791ZM132.791 43.0477V40.5047H131.83V43.0477H132.791ZM130.811 45.9305V43.3231H129.838V45.9305H130.811ZM130.811 43.0477V40.5047H129.838V43.0477H130.811ZM128.83 45.9305V43.3231H127.857V45.9305H128.83ZM128.83 43.0477V40.5047H127.857V43.0477H128.83ZM135.346 48.5555C135.346 48.7781 135.271 48.9598 135.123 49.1004C134.994 49.2176 134.836 49.2762 134.648 49.2762C134.449 49.2762 134.311 49.2195 134.232 49.1063C134.154 48.9969 134.074 48.7703 133.992 48.4266C133.891 48.0828 133.773 47.7977 133.641 47.5711C133.531 47.3836 133.363 47.159 133.137 46.8973C133.129 46.8856 133.125 46.8719 133.125 46.8563C133.125 46.7938 133.15 46.7684 133.201 46.7801C133.908 46.952 134.455 47.2137 134.842 47.5652C135.178 47.866 135.346 48.1961 135.346 48.5555ZM132.404 48.4734C132.404 48.7078 132.33 48.8875 132.182 49.0125C132.061 49.118 131.902 49.1707 131.707 49.1707C131.52 49.1707 131.383 49.1024 131.297 48.9656C131.219 48.8367 131.168 48.6219 131.145 48.3211C131.102 47.8211 130.971 47.3524 130.752 46.9149C130.748 46.907 130.746 46.8992 130.746 46.8914C130.746 46.8328 130.773 46.8035 130.828 46.8035C130.832 46.8035 130.838 46.8055 130.846 46.8094C131.381 47.0203 131.787 47.2918 132.064 47.6238C132.291 47.8973 132.404 48.1805 132.404 48.4734ZM129.047 49.2762C128.711 49.2762 128.543 49.1121 128.543 48.784C128.543 48.659 128.562 48.491 128.602 48.2801C128.641 48.0379 128.66 47.827 128.66 47.6473C128.66 47.3582 128.633 47.1024 128.578 46.8797C128.574 46.8484 128.582 46.8289 128.602 46.8211C128.625 46.8094 128.643 46.8035 128.654 46.8035C128.674 46.8035 128.689 46.8074 128.701 46.8152C129.467 47.3348 129.85 47.8953 129.85 48.4969C129.85 48.7469 129.77 48.9422 129.609 49.0828C129.465 49.2117 129.277 49.2762 129.047 49.2762ZM127.066 46.8035C127.121 47.0613 127.148 47.3133 127.148 47.5594C127.148 48.1375 126.996 48.5848 126.691 48.9012C126.449 49.159 126.15 49.2879 125.795 49.2879C125.596 49.2879 125.439 49.2274 125.326 49.1063C125.221 49.0008 125.168 48.866 125.168 48.702C125.168 48.327 125.389 48.0672 125.83 47.9227C126.162 47.8094 126.408 47.6688 126.568 47.5008C126.729 47.3367 126.854 47.1024 126.943 46.7977C126.951 46.7703 126.969 46.7567 126.996 46.7567C127.035 46.7567 127.059 46.7723 127.066 46.8035Z" fill="#427355"/>
<path d="M139.189 44.9344C138.467 46.1336 137.719 47.0164 136.945 47.5828C136.938 47.5867 136.928 47.5887 136.916 47.5887C136.865 47.5887 136.84 47.5633 136.84 47.5125C136.84 47.5008 136.844 47.491 136.852 47.4832C137.809 46.1942 138.537 44.6766 139.037 42.9305H137.953C137.762 42.9305 137.521 42.9539 137.232 43.0008L137.104 42.5555C137.393 42.618 137.66 42.6492 137.906 42.6492H139.131V40.1297C139.131 39.4188 139.115 38.8777 139.084 38.5067C139.787 38.6082 140.205 38.6805 140.338 38.7234C140.459 38.7586 140.52 38.8192 140.52 38.9051C140.52 38.9949 140.396 39.0984 140.15 39.2156V42.6492H140.725C141.021 42.243 141.223 42.0399 141.328 42.0399C141.402 42.0399 141.609 42.1824 141.949 42.4676C142.125 42.6199 142.213 42.7332 142.213 42.8074C142.213 42.8895 142.162 42.9305 142.061 42.9305H140.15V43.8211C141.318 44.1141 141.902 44.577 141.902 45.2098C141.902 45.3699 141.842 45.5106 141.721 45.6317C141.619 45.7332 141.508 45.784 141.387 45.784C141.227 45.784 141.107 45.7469 141.029 45.6727C140.939 45.5906 140.863 45.4402 140.801 45.2215C140.691 44.8231 140.475 44.4559 140.15 44.1199V44.1551L140.186 49.0594C140.186 49.3797 139.963 49.5399 139.518 49.5399C139.205 49.5399 139.049 49.4109 139.049 49.1531C139.049 49.075 139.072 48.4774 139.119 47.3602C139.158 46.3797 139.182 45.5711 139.189 44.9344ZM146.561 45.3856L146.672 45.3621C146.945 44.8192 147.129 44.5477 147.223 44.5477C147.305 44.5477 147.545 44.6727 147.943 44.9227C148.135 45.0399 148.23 45.1395 148.23 45.2215C148.23 45.2918 148.186 45.3387 148.096 45.3621L146.561 45.6492C146.564 46.0164 146.576 46.7684 146.596 47.9051C146.604 48.4481 146.607 48.8133 146.607 49.0008C146.607 49.3445 146.375 49.5164 145.91 49.5164C145.566 49.5164 145.395 49.3758 145.395 49.0945L145.412 45.866L142.482 46.4227C142.236 46.4656 141.955 46.5496 141.639 46.6746L141.416 46.241C141.74 46.241 142.059 46.2117 142.371 46.1531L145.412 45.5906C145.42 44.7742 145.424 43.2098 145.424 40.8973C145.424 39.9793 145.402 39.2274 145.359 38.6414C146.023 38.7078 146.457 38.7703 146.66 38.8289C146.844 38.8836 146.936 38.9578 146.936 39.0516C146.936 39.1375 146.803 39.2449 146.537 39.3738V41.2957C146.537 42.5535 146.545 43.9168 146.561 45.3856ZM144.855 41.2254C144.855 41.4246 144.791 41.5848 144.662 41.7059C144.549 41.8152 144.41 41.8699 144.246 41.8699C144.102 41.8699 143.996 41.825 143.93 41.7352C143.875 41.6609 143.773 41.4578 143.625 41.1258C143.438 40.7078 143.148 40.3641 142.758 40.0945C142.742 40.0828 142.734 40.0672 142.734 40.0477C142.734 40.0086 142.754 39.9891 142.793 39.9891C144.168 40.1102 144.855 40.5223 144.855 41.2254ZM144.445 44.032C144.445 44.2469 144.385 44.4188 144.264 44.5477C144.158 44.6609 144.027 44.7176 143.871 44.7176C143.73 44.7176 143.623 44.6844 143.549 44.618C143.482 44.5555 143.422 44.4481 143.367 44.2957C143.254 43.9871 143.117 43.7332 142.957 43.534C142.82 43.3582 142.617 43.159 142.348 42.9363C142.332 42.9285 142.324 42.9149 142.324 42.8953C142.324 42.8524 142.348 42.8309 142.395 42.8309C143.762 42.9598 144.445 43.3602 144.445 44.032ZM138.797 41.3895C138.797 41.6043 138.744 41.7801 138.639 41.9168C138.545 42.0379 138.43 42.0984 138.293 42.0984C138.129 42.0984 138.018 42.0399 137.959 41.9227C137.904 41.8133 137.857 41.5965 137.818 41.2723C137.756 40.5887 137.604 40.0164 137.361 39.5555C137.357 39.5477 137.355 39.5399 137.355 39.532C137.355 39.4852 137.379 39.4617 137.426 39.4617C137.438 39.4617 137.447 39.4656 137.455 39.4734C138.35 40.1336 138.797 40.7723 138.797 41.3895ZM142.395 40.0711C142.395 40.2078 142.242 40.2918 141.938 40.3231C141.555 40.9715 141.096 41.575 140.561 42.1336C140.553 42.1453 140.539 42.1512 140.52 42.1512C140.465 42.1512 140.438 42.1297 140.438 42.0867C140.438 42.0828 140.439 42.077 140.443 42.0692C140.635 41.5692 140.809 41.0008 140.965 40.3641C141.051 39.9852 141.107 39.6688 141.135 39.4149C141.975 39.7391 142.395 39.9578 142.395 40.0711Z" fill="#427355"/>
<path d="M183.134 63.228C177.076 56.6218 173.353 47.8043 173.304 38.12C173.202 17.6334 189.584 1.02574 209.894 1.02574C230.205 1.02574 246.752 17.6334 246.855 38.12C246.957 58.6066 230.575 75.2143 210.265 75.2143C204.394 75.2143 198.837 73.8265 193.901 71.3585" stroke="#427355" stroke-width="0.5"/>
<path d="M204.402 25.2676C204.465 26.0488 204.537 26.7422 204.619 27.3476C204.619 27.4219 204.574 27.4668 204.484 27.4824C204.453 27.4863 204.426 27.4883 204.402 27.4883C204.344 27.4883 204.305 27.4609 204.285 27.4062C204.066 26.8359 203.785 26.4082 203.441 26.123C203.117 25.8418 202.629 25.7012 201.977 25.7012C201.758 25.7012 201.617 25.7109 201.555 25.7305C201.438 25.7617 201.344 25.832 201.273 25.9414C201.191 26.0664 201.143 26.2793 201.127 26.5801C201.119 26.7168 201.115 27.0078 201.115 27.4531V31.8066C201.115 32.4902 201.119 32.8867 201.127 32.9961C201.139 33.1484 201.17 33.2832 201.221 33.4004C201.279 33.5137 201.404 33.5918 201.596 33.6348C201.666 33.6504 201.852 33.6738 202.152 33.7051C202.223 33.7129 202.258 33.7637 202.258 33.8574C202.258 33.9629 202.217 34.0156 202.135 34.0156C201.615 33.9922 201.039 33.9805 200.406 33.9805C199.777 33.9805 199.225 33.9922 198.748 34.0156C198.678 34.0156 198.643 33.9668 198.643 33.8691C198.643 33.7676 198.678 33.7129 198.748 33.7051C199.037 33.6699 199.221 33.6406 199.299 33.6172C199.428 33.5742 199.52 33.5019 199.574 33.4004C199.648 33.2519 199.686 32.957 199.686 32.5156V31.8066V27.4531C199.686 26.8633 199.678 26.4844 199.662 26.3164C199.646 26.1601 199.609 26.0273 199.551 25.918C199.473 25.7734 199.246 25.7012 198.871 25.7012C198.254 25.7012 197.777 25.8418 197.441 26.123C197.152 26.3535 196.863 26.7812 196.574 27.4062C196.555 27.4609 196.518 27.4883 196.463 27.4883C196.439 27.4883 196.414 27.4863 196.387 27.4824C196.297 27.4668 196.252 27.4219 196.252 27.3476C196.342 26.789 196.418 26.0957 196.48 25.2676C197.703 25.2988 199.02 25.3144 200.43 25.3144C201.844 25.3144 203.168 25.2988 204.402 25.2676Z" fill="#427355"/>
<path d="M207.854 29.6973V31.8066V32.6152C207.854 33.0332 207.887 33.3047 207.953 33.4297C208.02 33.543 208.145 33.6191 208.328 33.6582C208.41 33.6738 208.604 33.6973 208.908 33.7285C208.979 33.7363 209.014 33.7832 209.014 33.8691C209.014 33.9668 208.975 34.0156 208.896 34.0156C208.771 34.0117 208.576 34.0078 208.311 34.0039C207.771 33.9883 207.379 33.9805 207.133 33.9805C206.551 33.9805 205.986 33.9922 205.439 34.0156C205.385 34.0156 205.357 33.9707 205.357 33.8808C205.357 33.7871 205.385 33.7363 205.439 33.7285C205.76 33.6973 205.955 33.6699 206.025 33.6465C206.146 33.6074 206.234 33.5351 206.289 33.4297C206.371 33.2969 206.42 33.0762 206.436 32.7676C206.443 32.6269 206.447 32.3066 206.447 31.8066V27.4531C206.447 26.8398 206.438 26.4531 206.418 26.293C206.402 26.1406 206.359 26.0019 206.289 25.8769C206.238 25.7715 206.131 25.6992 205.967 25.6601C205.885 25.6406 205.695 25.6172 205.398 25.5898C205.336 25.582 205.305 25.5312 205.305 25.4375C205.305 25.3242 205.336 25.2676 205.398 25.2676C205.484 25.2676 205.797 25.2773 206.336 25.2969C206.672 25.3086 206.938 25.3144 207.133 25.3144C207.352 25.3144 207.654 25.3066 208.041 25.291C208.447 25.2793 208.703 25.2715 208.809 25.2676C208.906 25.2676 208.955 25.3242 208.955 25.4375C208.955 25.5273 208.916 25.5781 208.838 25.5898C208.521 25.625 208.328 25.6523 208.258 25.6719C208.129 25.7109 208.033 25.7793 207.971 25.8769C207.893 26.0449 207.854 26.5703 207.854 27.4531V29.1582C208.365 29.1816 209.08 29.1933 209.998 29.1933C210.885 29.1933 211.58 29.1816 212.084 29.1582V27.4531C212.084 26.8203 212.078 26.4316 212.066 26.2871C212.055 26.1308 212.021 25.9941 211.967 25.8769C211.908 25.7676 211.791 25.6933 211.615 25.6543C211.553 25.6426 211.361 25.6211 211.041 25.5898C210.979 25.582 210.947 25.5312 210.947 25.4375C210.947 25.3242 210.982 25.2676 211.053 25.2676C211.139 25.2676 211.455 25.2773 212.002 25.2969C212.342 25.3086 212.615 25.3144 212.822 25.3144C213.025 25.3144 213.318 25.3066 213.701 25.291C214.096 25.2793 214.354 25.2715 214.475 25.2676C214.572 25.2676 214.621 25.3203 214.621 25.4258C214.621 25.5273 214.576 25.582 214.486 25.5898C214.158 25.625 213.951 25.6582 213.865 25.6894C213.783 25.7168 213.715 25.7793 213.66 25.8769C213.547 26.0644 213.49 26.5898 213.49 27.4531V31.8066C213.49 32.4433 213.5 32.8457 213.52 33.0137C213.535 33.1699 213.578 33.3086 213.648 33.4297C213.715 33.543 213.834 33.6191 214.006 33.6582C214.088 33.6777 214.281 33.7012 214.586 33.7285C214.641 33.7363 214.668 33.7871 214.668 33.8808C214.668 33.9707 214.633 34.0156 214.562 34.0156C214.422 34.0117 214.223 34.0078 213.965 34.0039C213.426 33.9883 213.043 33.9805 212.816 33.9805C212.789 33.9805 212.221 33.9922 211.111 34.0156C211.041 34.0156 211.006 33.9707 211.006 33.8808C211.006 33.7871 211.041 33.7363 211.111 33.7285C211.42 33.6973 211.611 33.6699 211.686 33.6465C211.799 33.6074 211.883 33.5351 211.938 33.4297C212.035 33.2422 212.084 32.7012 212.084 31.8066V29.6973C211.58 29.666 210.885 29.6504 209.998 29.6504C209.08 29.6504 208.365 29.666 207.854 29.6973Z" fill="#427355"/>
<path d="M223.211 25.3965C223.258 26.0058 223.326 26.7012 223.416 27.4824C223.416 27.4941 223.416 27.5039 223.416 27.5117C223.416 27.582 223.375 27.6289 223.293 27.6523C223.266 27.6562 223.242 27.6582 223.223 27.6582C223.176 27.6582 223.135 27.623 223.1 27.5527C222.744 26.8652 222.385 26.3633 222.021 26.0469C221.576 25.6719 221.064 25.4844 220.486 25.4844C219.537 25.4844 218.77 25.9101 218.184 26.7617C217.664 27.5195 217.404 28.4687 217.404 29.6094C217.404 30.7969 217.742 31.7676 218.418 32.5215C219.008 33.1738 219.717 33.5 220.545 33.5C221.814 33.5 222.799 32.9433 223.498 31.8301C223.518 31.791 223.547 31.7715 223.586 31.7715C223.621 31.7715 223.672 31.7871 223.738 31.8183C223.809 31.8496 223.844 31.8926 223.844 31.9473C223.844 31.9707 223.836 31.998 223.82 32.0293C223.02 33.4824 221.844 34.209 220.293 34.209C218.875 34.209 217.734 33.7285 216.871 32.7676C216.121 31.9316 215.746 30.8887 215.746 29.6387C215.746 28.2168 216.234 27.0723 217.211 26.2051C218.059 25.4512 219.102 25.0742 220.34 25.0742C220.832 25.0742 221.34 25.1387 221.863 25.2676C222.289 25.373 222.615 25.4258 222.842 25.4258C222.963 25.4258 223.086 25.416 223.211 25.3965Z" fill="#427355"/>
<path d="M199.604 43.2715C197.979 43.4512 196.756 43.6191 195.936 43.7754C195.783 43.8066 195.643 43.8633 195.514 43.9453C195.424 44 195.307 44.0273 195.162 44.0273C194.959 44.0273 194.721 43.8555 194.447 43.5117C194.182 43.1875 194.049 42.9062 194.049 42.668C194.049 42.4297 194.094 42.3105 194.184 42.3105C194.223 42.3105 194.289 42.3594 194.383 42.457C194.562 42.6523 194.719 42.7812 194.852 42.8437C194.98 42.9062 195.135 42.9375 195.314 42.9375C195.354 42.9375 195.393 42.9355 195.432 42.9316C195.814 42.9199 196.109 42.9043 196.316 42.8848C197.973 42.7324 199.129 42.6172 199.785 42.539C200.035 42.5117 200.215 42.457 200.324 42.375C200.449 42.2773 200.555 42.2285 200.641 42.2285C200.84 42.2168 201.1 42.332 201.42 42.5742C201.646 42.7461 201.795 42.8887 201.865 43.0019C201.928 43.0996 201.959 43.2129 201.959 43.3418C201.959 43.4668 201.875 43.5723 201.707 43.6582C201.516 43.748 201.344 43.9394 201.191 44.2324C200.52 45.4746 199.76 46.539 198.912 47.4258C197.787 48.5976 196.465 49.4609 194.945 50.0156C194.875 50.039 194.816 50.0508 194.77 50.0508C194.664 50.0508 194.611 50.0058 194.611 49.916C194.611 49.873 194.676 49.8105 194.805 49.7285C196.16 48.9004 197.293 47.9082 198.203 46.7519C198.848 45.916 199.471 44.8965 200.072 43.6933C200.178 43.498 200.23 43.3613 200.23 43.2832C200.23 43.2441 200.189 43.2246 200.107 43.2246C200.006 43.2246 199.838 43.2402 199.604 43.2715Z" fill="#427355"/>
<path d="M207.789 43.2949C207.789 42.7402 207.77 42.4082 207.73 42.2988C207.672 42.1504 207.475 41.998 207.139 41.8418C207.053 41.7988 207.01 41.7598 207.01 41.7246C207.01 41.6738 207.055 41.6289 207.145 41.5898C207.27 41.5273 207.396 41.4961 207.525 41.4961C207.74 41.4961 208.041 41.6035 208.428 41.8183C208.842 42.0449 209.049 42.2773 209.049 42.5156C209.049 42.6289 209.002 42.7402 208.908 42.8496C208.861 42.9121 208.832 43.0488 208.82 43.2598C208.785 44.2441 208.762 45.3887 208.75 46.6933C208.75 47.0371 208.609 47.209 208.328 47.209C208.133 47.209 207.955 47.0644 207.795 46.7754C207.689 46.5801 207.637 46.3555 207.637 46.1015C207.637 45.9922 207.656 45.8769 207.695 45.7558C207.723 45.6543 207.742 45.4707 207.754 45.2051C207.777 44.748 207.789 44.1113 207.789 43.2949ZM211.164 42.1933C211.164 41.9355 211.15 41.7598 211.123 41.666C211.096 41.5644 211.041 41.4883 210.959 41.4375C210.814 41.3437 210.619 41.2676 210.373 41.209C210.283 41.1894 210.238 41.1601 210.238 41.1211C210.238 41.0664 210.303 40.9902 210.432 40.8926C210.537 40.8223 210.656 40.7871 210.789 40.7871C211.109 40.7871 211.453 40.8711 211.82 41.039C212.27 41.2422 212.494 41.4551 212.494 41.6777C212.494 41.8105 212.445 41.9258 212.348 42.0234C212.262 42.1133 212.219 42.334 212.219 42.6855C212.219 44.623 212.119 45.998 211.92 46.8105C211.729 47.6777 211.328 48.4101 210.719 49.0078C209.859 49.8555 208.664 50.4433 207.133 50.7715C207.012 50.7949 206.936 50.8066 206.904 50.8066C206.799 50.8066 206.746 50.7715 206.746 50.7012C206.746 50.6465 206.803 50.5976 206.916 50.5547C208.611 49.9609 209.795 49.0371 210.467 47.7832C210.83 47.1074 211.047 46.2226 211.117 45.1289C211.148 44.6719 211.164 43.6933 211.164 42.1933Z" fill="#427355"/>
<path d="M226.68 45.791C226.68 45.9238 226.637 46.039 226.551 46.1367C226.469 46.2265 226.367 46.2715 226.246 46.2715C226.129 46.2715 225.877 46.2637 225.49 46.248C225.15 46.2246 224.811 46.2129 224.471 46.2129C222.818 46.2129 221.322 46.2734 219.982 46.3945C219.346 46.4453 218.949 46.5215 218.793 46.623C218.703 46.6855 218.596 46.7168 218.471 46.7168C218.209 46.7168 217.889 46.4414 217.51 45.8906C217.357 45.6758 217.281 45.459 217.281 45.2402C217.281 45.0488 217.33 44.9531 217.428 44.9531C217.459 44.9531 217.51 44.9883 217.58 45.0586C217.795 45.2695 217.986 45.4043 218.154 45.4629C218.256 45.498 218.4 45.5156 218.588 45.5156C218.838 45.5156 219.258 45.4961 219.848 45.457C221.449 45.3555 222.867 45.291 224.102 45.2637C224.535 45.2519 224.846 45.1953 225.033 45.0937C225.162 45.0312 225.275 45 225.373 45C225.549 45 225.729 45.039 225.912 45.1172C226.424 45.3359 226.68 45.5605 226.68 45.791Z" fill="#427355"/>
</svg>
