<svg viewBox="0 0 68 64" fill="none" xmlns="http://www.w3.org/2000/svg">
<path d="M4.15973 10.456C4.15973 10.8613 4.18106 11.192 4.22373 11.448C4.26639 11.704 4.35173 11.9013 4.47973 12.04C4.60773 12.1787 4.78373 12.2747 5.00773 12.328C5.23173 12.3707 5.53039 12.392 5.90373 12.392V13H0.719727V12.392C1.09306 12.392 1.39173 12.3707 1.61573 12.328C1.85039 12.2747 2.03173 12.184 2.15973 12.056C2.28773 11.9173 2.37306 11.7307 2.41573 11.496C2.45839 11.2507 2.47973 10.9413 2.47973 10.568V3.11199C2.47973 2.70666 2.45306 2.38666 2.39973 2.15199C2.35706 1.90666 2.27173 1.71999 2.14373 1.59199C2.02639 1.46399 1.86639 1.38399 1.66373 1.35199C1.46106 1.30933 1.19973 1.28799 0.879727 1.28799V0.679993H5.74373V1.28799C5.42373 1.28799 5.16239 1.30933 4.95973 1.35199C4.75706 1.39466 4.59173 1.48533 4.46373 1.62399C4.34639 1.76266 4.26639 1.95999 4.22373 2.21599C4.18106 2.46133 4.15973 2.79733 4.15973 3.22399V7.17599L8.15973 2.35999C8.37306 2.09333 8.47973 1.88533 8.47973 1.73599C8.47973 1.43733 8.17573 1.28799 7.56773 1.28799V0.679993H11.4237V1.27199C11.2104 1.27199 11.0237 1.28799 10.8637 1.31999C10.7037 1.34133 10.5437 1.39466 10.3837 1.47999C10.2344 1.56533 10.0744 1.68799 9.90373 1.84799C9.73306 2.00799 9.53573 2.21599 9.31173 2.47199L6.30373 5.94399L10.9757 11.56C11.2424 11.8693 11.4931 12.088 11.7277 12.216C11.9624 12.3333 12.2771 12.392 12.6717 12.392V13H7.75973V12.392C8.17573 12.392 8.47439 12.36 8.65573 12.296C8.83706 12.2213 8.92773 12.1093 8.92773 11.96C8.92773 11.8747 8.88506 11.752 8.79973 11.592C8.71439 11.432 8.57573 11.2347 8.38373 11L5.26373 7.15999L4.15973 8.43999V10.456Z" fill="#1E1F21" fill-opacity="0.9"/>
<path d="M21.5565 8.53599H17.2845C17.1031 8.97333 16.9485 9.36266 16.8205 9.70399C16.6925 10.0347 16.5858 10.3227 16.5005 10.568C16.4258 10.8133 16.3725 11.0213 16.3405 11.192C16.3085 11.3627 16.2925 11.5013 16.2925 11.608C16.2925 11.9067 16.3885 12.1147 16.5805 12.232C16.7725 12.3387 17.0925 12.392 17.5405 12.392V13H13.6525V12.392C13.8978 12.36 14.1058 12.3173 14.2765 12.264C14.4578 12.2107 14.6125 12.136 14.7405 12.04C14.8791 11.944 14.9965 11.8213 15.0925 11.672C15.1991 11.512 15.3005 11.32 15.3965 11.096L19.5565 0.679993H20.2445L23.8765 9.70399C24.1218 10.3013 24.3351 10.7813 24.5165 11.144C24.6978 11.496 24.8738 11.7627 25.0445 11.944C25.2151 12.1253 25.3965 12.2427 25.5885 12.296C25.7911 12.3493 26.0311 12.376 26.3085 12.376V13H21.0925V12.376C21.6578 12.376 22.0471 12.3227 22.2605 12.216C22.4738 12.1093 22.5805 11.9333 22.5805 11.688C22.5805 11.5813 22.5751 11.4853 22.5645 11.4C22.5538 11.304 22.5325 11.2027 22.5005 11.096C22.4791 10.9893 22.4418 10.872 22.3885 10.744C22.3458 10.6053 22.2871 10.4453 22.2125 10.264L21.5565 8.53599ZM17.6045 7.73599H21.2525L19.4765 3.01599L17.6045 7.73599Z" fill="#1E1F21" fill-opacity="0.9"/>
<path d="M37.9159 3.76799C37.9159 4.62133 37.6599 5.33066 37.1479 5.89599C36.6359 6.46133 35.8199 6.83999 34.6999 7.03199L38.2359 11.288C38.5239 11.64 38.8385 11.896 39.1799 12.056C39.5319 12.2053 39.9478 12.3173 40.4278 12.392V13H37.3399L33.4198 7.97599C33.2812 7.79466 33.1479 7.65066 33.0199 7.54399C32.9025 7.43733 32.7745 7.35733 32.6359 7.30399C32.5079 7.23999 32.3532 7.20266 32.1719 7.19199C32.0012 7.17066 31.7932 7.15999 31.5479 7.15999V10.488C31.5479 10.8827 31.5692 11.208 31.6119 11.464C31.6652 11.7093 31.7665 11.9013 31.9159 12.04C32.0759 12.1787 32.2999 12.2747 32.5879 12.328C32.8865 12.3707 33.2759 12.392 33.7559 12.392V13H28.1079V12.392C28.4812 12.3813 28.7799 12.3493 29.0039 12.296C29.2385 12.2427 29.4199 12.152 29.5479 12.024C29.6759 11.896 29.7612 11.7147 29.8039 11.48C29.8465 11.2453 29.8679 10.9413 29.8679 10.568V3.11199C29.8679 2.73866 29.8465 2.43999 29.8039 2.21599C29.7719 1.98133 29.6972 1.79999 29.5799 1.67199C29.4732 1.53333 29.3132 1.44266 29.0999 1.39999C28.8865 1.34666 28.6092 1.30933 28.2679 1.28799V0.679993H33.2919C34.7639 0.679993 35.8999 0.951993 36.6999 1.49599C37.5105 2.03999 37.9159 2.79733 37.9159 3.76799ZM31.5479 6.35999H32.6839C33.7505 6.35999 34.5398 6.16799 35.0518 5.78399C35.5745 5.38933 35.8358 4.74399 35.8358 3.84799C35.8358 2.98399 35.6278 2.36533 35.2118 1.99199C34.8065 1.61866 34.1665 1.43199 33.2919 1.43199H31.8199C31.6385 1.43199 31.5479 1.52266 31.5479 1.70399V6.35999Z" fill="#1E1F21" fill-opacity="0.9"/>
<path d="M45.4372 6.23199C46.0132 6.23199 46.4932 6.19999 46.8772 6.13599C47.2719 6.06133 47.5812 5.94933 47.8052 5.79999C48.0399 5.65066 48.2052 5.45866 48.3012 5.22399C48.4079 4.98933 48.4612 4.71199 48.4612 4.39199H49.0212V8.75999H48.4612C48.4612 8.43999 48.4132 8.16266 48.3172 7.92799C48.2319 7.69333 48.0719 7.50133 47.8372 7.35199C47.6132 7.19199 47.3039 7.07466 46.9092 6.99999C46.5252 6.91466 46.0346 6.87199 45.4372 6.87199V10.488C45.4372 10.84 45.4799 11.1333 45.5652 11.368C45.6506 11.592 45.7946 11.7787 45.9972 11.928C46.2106 12.0667 46.4879 12.168 46.8292 12.232C47.1706 12.2853 47.5919 12.312 48.0932 12.312C48.6586 12.312 49.1386 12.2747 49.5332 12.2C49.9279 12.1147 50.2586 11.976 50.5252 11.784C50.7919 11.592 51.0052 11.3413 51.1652 11.032C51.3252 10.712 51.4586 10.3173 51.5652 9.84799H52.1732L51.9332 13H41.9972V12.392C42.3706 12.3813 42.6692 12.3493 42.8932 12.296C43.1279 12.2427 43.3092 12.152 43.4372 12.024C43.5652 11.896 43.6506 11.7147 43.6932 11.48C43.7359 11.2453 43.7572 10.9413 43.7572 10.568V3.11199C43.7572 2.73866 43.7359 2.43999 43.6932 2.21599C43.6612 1.98133 43.5866 1.79999 43.4692 1.67199C43.3626 1.53333 43.2026 1.44266 42.9892 1.39999C42.7759 1.34666 42.4986 1.30933 42.1572 1.28799V0.679993H51.4052L51.5492 3.49599H50.9892C50.9252 3.06933 50.8186 2.72266 50.6692 2.45599C50.5306 2.17866 50.3332 1.95999 50.0772 1.79999C49.8319 1.63999 49.5172 1.52799 49.1332 1.46399C48.7492 1.39999 48.2852 1.36799 47.7412 1.36799H45.7092C45.5279 1.36799 45.4372 1.45866 45.4372 1.63999V6.23199Z" fill="#1E1F21" fill-opacity="0.9"/>
<path d="M65.2706 13.16L57.6706 3.14399H57.6066V9.97599C57.6066 10.5093 57.6226 10.9307 57.6546 11.24C57.6973 11.5493 57.7719 11.7893 57.8786 11.96C57.9959 12.1307 58.1559 12.2427 58.3586 12.296C58.5719 12.3493 58.8493 12.3813 59.1906 12.392V13H54.8866V12.392C55.2599 12.3813 55.5586 12.3493 55.7826 12.296C56.0173 12.232 56.1986 12.12 56.3266 11.96C56.4546 11.8 56.5399 11.576 56.5826 11.288C56.6253 10.9893 56.6466 10.5893 56.6466 10.088V3.59199C56.6466 3.14399 56.6253 2.77599 56.5826 2.48799C56.5506 2.18933 56.4759 1.95466 56.3586 1.78399C56.2519 1.61333 56.0919 1.49599 55.8786 1.43199C55.6653 1.35733 55.3879 1.30933 55.0466 1.28799V0.679993H58.2146L65.2066 10.008H65.2706V3.70399C65.2706 3.18133 65.2493 2.76533 65.2066 2.45599C65.1746 2.13599 65.0999 1.89066 64.9826 1.71999C64.8759 1.54933 64.7159 1.43733 64.5026 1.38399C64.2999 1.33066 64.0279 1.29866 63.6866 1.28799V0.679993H67.9906V1.28799C67.6173 1.29866 67.3133 1.33599 67.0786 1.39999C66.8546 1.45333 66.6786 1.55999 66.5506 1.71999C66.4226 1.87999 66.3373 2.10933 66.2946 2.40799C66.2519 2.70666 66.2306 3.10133 66.2306 3.59199V13.16H65.2706Z" fill="#1E1F21" fill-opacity="0.9"/>
<path d="M11.0237 25.68H11.4717L11.6157 29.36H11.0237C10.7891 28.4213 10.3357 27.6853 9.66373 27.152C8.99173 26.6187 8.18106 26.352 7.23173 26.352C6.58106 26.352 5.99973 26.48 5.48773 26.736C4.97573 26.992 4.54373 27.36 4.19173 27.84C3.83973 28.32 3.56773 28.9067 3.37573 29.6C3.19439 30.2933 3.10373 31.0773 3.10373 31.952C3.10373 33.6693 3.46106 34.992 4.17573 35.92C4.89039 36.8373 5.92506 37.296 7.27973 37.296C9.33839 37.296 10.6611 36.2027 11.2477 34.016H11.9037V38H11.3437L10.9757 36.736C9.85573 37.6853 8.50106 38.16 6.91173 38.16C6.00506 38.16 5.18373 38.016 4.44773 37.728C3.72239 37.44 3.09839 37.0347 2.57573 36.512C2.06373 35.9787 1.66373 35.3333 1.37573 34.576C1.09839 33.8187 0.959727 32.976 0.959727 32.048C0.959727 31.0773 1.10906 30.192 1.40773 29.392C1.70639 28.592 2.12239 27.904 2.65573 27.328C3.19973 26.752 3.84506 26.3093 4.59173 26C5.34906 25.68 6.18106 25.52 7.08773 25.52C7.72773 25.52 8.33039 25.6107 8.89573 25.792C9.46106 25.9733 10.0744 26.2667 10.7357 26.672L11.0237 25.68Z" fill="#1E1F21" fill-opacity="0.9"/>
<path d="M14.7159 38V37.392C15.1319 37.3813 15.4625 37.3493 15.7079 37.296C15.9639 37.2427 16.1559 37.152 16.2839 37.024C16.4225 36.896 16.5132 36.7147 16.5559 36.48C16.6092 36.2453 16.6359 35.9413 16.6359 35.568V28.112C16.6359 27.7387 16.6145 27.44 16.5719 27.216C16.5399 26.9813 16.4652 26.8 16.3479 26.672C16.2412 26.5333 16.0812 26.4427 15.8679 26.4C15.6545 26.3467 15.3772 26.3093 15.0359 26.288V25.68H19.8199C21.2599 25.68 22.3799 25.936 23.1799 26.448C23.9799 26.96 24.3799 27.68 24.3799 28.608C24.3799 29.312 24.1559 29.888 23.7079 30.336C23.2705 30.784 22.5719 31.152 21.6119 31.44V31.504C21.9425 31.536 22.2305 31.5733 22.4759 31.616C22.7212 31.6587 22.9399 31.712 23.1319 31.776C23.3239 31.8293 23.4999 31.8987 23.6599 31.984C23.8305 32.0693 23.9959 32.1653 24.1559 32.272C25.1052 32.944 25.5799 33.7867 25.5799 34.8C25.5799 35.3653 25.4199 35.8933 25.0999 36.384C24.7905 36.864 24.3532 37.2427 23.7879 37.52C23.6065 37.616 23.4199 37.696 23.2279 37.76C23.0359 37.8133 22.8119 37.8613 22.5559 37.904C22.2999 37.936 22.0012 37.9627 21.6599 37.984C21.3292 37.9947 20.9345 38 20.4759 38H14.7159ZM20.5239 37.312C22.4545 37.312 23.4199 36.4853 23.4199 34.832C23.4199 33.6267 22.9239 32.784 21.9319 32.304C21.7612 32.2293 21.5959 32.1653 21.4359 32.112C21.2759 32.0587 21.0892 32.0213 20.8759 32C20.6625 31.968 20.4065 31.9467 20.1079 31.936C19.8199 31.9253 19.4625 31.92 19.0359 31.92H18.3159V35.488C18.3159 36.1387 18.4865 36.608 18.8279 36.896C19.1692 37.1733 19.7345 37.312 20.5239 37.312ZM19.2119 31.12C19.5425 31.12 19.8199 31.1147 20.0439 31.104C20.2679 31.0933 20.4599 31.0773 20.6199 31.056C20.7799 31.024 20.9185 30.9867 21.0359 30.944C21.1639 30.8907 21.2919 30.8213 21.4199 30.736C21.7612 30.5227 22.0012 30.2667 22.1399 29.968C22.2892 29.6693 22.3639 29.28 22.3639 28.8C22.3639 27.9573 22.1559 27.3547 21.7399 26.992C21.3345 26.6187 20.6945 26.432 19.8199 26.432H18.5879C18.4065 26.432 18.3159 26.5227 18.3159 26.704V31.12H19.2119Z" fill="#1E1F21" fill-opacity="0.9"/>
<path d="M28.1677 38V37.392C28.5731 37.3813 28.8984 37.3547 29.1437 37.312C29.3997 37.2587 29.5971 37.168 29.7357 37.04C29.8744 36.9013 29.9651 36.72 30.0077 36.496C30.0611 36.2613 30.0877 35.952 30.0877 35.568V28.112C30.0877 27.7387 30.0664 27.44 30.0237 27.216C29.9917 26.9813 29.9171 26.8 29.7997 26.672C29.6931 26.5333 29.5331 26.4427 29.3197 26.4C29.1064 26.3467 28.8291 26.3093 28.4877 26.288V25.68H34.1037C35.0637 25.68 35.9491 25.84 36.7597 26.16C37.5811 26.48 38.2851 26.9227 38.8717 27.488C39.4691 28.0533 39.9331 28.7253 40.2637 29.504C40.5944 30.2827 40.7597 31.1307 40.7597 32.048C40.7597 32.9227 40.6051 33.728 40.2957 34.464C39.9864 35.1893 39.5491 35.8133 38.9837 36.336C38.4291 36.8587 37.7624 37.2693 36.9837 37.568C36.2051 37.856 35.3517 38 34.4237 38H28.1677ZM32.0397 26.464C31.8584 26.464 31.7677 26.5547 31.7677 26.736V35.392C31.7677 36.608 32.5624 37.216 34.1517 37.216C35.6131 37.216 36.7331 36.784 37.5117 35.92C38.2904 35.0453 38.6797 33.7653 38.6797 32.08C38.6797 31.1947 38.5731 30.4053 38.3597 29.712C38.1464 29.0187 37.8371 28.432 37.4317 27.952C37.0371 27.472 36.5571 27.104 35.9917 26.848C35.4264 26.592 34.7864 26.464 34.0717 26.464H32.0397Z" fill="#1E1F21" fill-opacity="0.9"/>
<path d="M7.56773 50.52C8.50639 50.52 9.38106 50.6853 10.1917 51.016C11.0024 51.3467 11.7064 51.8 12.3037 52.376C12.9011 52.952 13.3704 53.6293 13.7117 54.408C14.0531 55.1867 14.2237 56.0293 14.2237 56.936C14.2237 57.8 14.0477 58.6107 13.6957 59.368C13.3544 60.1253 12.8851 60.7867 12.2877 61.352C11.6904 61.9067 10.9864 62.3493 10.1757 62.68C9.36506 63 8.49573 63.16 7.56773 63.16C6.63973 63.16 5.77039 63 4.95973 62.68C4.14906 62.3493 3.44506 61.9067 2.84773 61.352C2.25039 60.7867 1.77573 60.1253 1.42373 59.368C1.08239 58.6107 0.911727 57.8 0.911727 56.936C0.911727 56.0293 1.08239 55.1867 1.42373 54.408C1.76506 53.6293 2.23439 52.952 2.83173 52.376C3.42906 51.8 4.13306 51.3467 4.94373 51.016C5.75439 50.6853 6.62906 50.52 7.56773 50.52ZM7.56773 62.28C8.27173 62.28 8.90106 62.1573 9.45573 61.912C10.0211 61.6667 10.5011 61.3147 10.8957 60.856C11.3011 60.3973 11.6104 59.8427 11.8237 59.192C12.0371 58.5307 12.1437 57.7947 12.1437 56.984C12.1437 56.1307 12.0371 55.3627 11.8237 54.68C11.6104 53.9867 11.3064 53.4 10.9117 52.92C10.5171 52.4293 10.0371 52.056 9.47173 51.8C8.90639 51.5333 8.27173 51.4 7.56773 51.4C6.86373 51.4 6.22906 51.5333 5.66373 51.8C5.09839 52.056 4.61839 52.4293 4.22373 52.92C3.82906 53.4 3.52506 53.9867 3.31173 54.68C3.09839 55.3627 2.99173 56.1307 2.99173 56.984C2.99173 57.7947 3.09839 58.5307 3.31173 59.192C3.52506 59.8427 3.82906 60.3973 4.22373 60.856C4.61839 61.3147 5.09839 61.6667 5.66373 61.912C6.22906 62.1573 6.86373 62.28 7.56773 62.28Z" fill="#1E1F21" fill-opacity="0.9"/>
<path d="M20.3772 59.976C20.3772 60.5093 20.3986 60.9307 20.4412 61.24C20.4839 61.5493 20.5639 61.7893 20.6812 61.96C20.8092 62.1307 20.9852 62.2427 21.2092 62.296C21.4439 62.3493 21.7479 62.3813 22.1212 62.392V63H16.9372V62.392C17.3106 62.3813 17.6092 62.3493 17.8332 62.296C18.0679 62.232 18.2492 62.12 18.3772 61.96C18.5052 61.8 18.5906 61.576 18.6332 61.288C18.6759 60.9893 18.6972 60.5893 18.6972 60.088V53.592C18.6972 53.144 18.6759 52.776 18.6332 52.488C18.6012 52.1893 18.5266 51.9547 18.4092 51.784C18.3026 51.6133 18.1426 51.496 17.9292 51.432C17.7159 51.3573 17.4386 51.3093 17.0972 51.288V50.68H21.9612V51.288C21.6199 51.2987 21.3426 51.3413 21.1292 51.416C20.9266 51.4907 20.7666 51.6187 20.6492 51.8C20.5426 51.9707 20.4679 52.2107 20.4252 52.52C20.3932 52.8293 20.3772 53.224 20.3772 53.704V59.976Z" fill="#1E1F21" fill-opacity="0.9"/>
<path d="M35.1939 63H24.8579V62.392C25.2312 62.3813 25.5299 62.3493 25.7539 62.296C25.9885 62.2427 26.1699 62.152 26.2979 62.024C26.4259 61.896 26.5112 61.7147 26.5539 61.48C26.5965 61.2453 26.6179 60.9413 26.6179 60.568V53.112C26.6179 52.7387 26.5965 52.44 26.5539 52.216C26.5219 51.9813 26.4472 51.8 26.3299 51.672C26.2232 51.5333 26.0632 51.4427 25.8499 51.4C25.6365 51.3467 25.3592 51.3093 25.0179 51.288V50.68H29.8819V51.288C29.5405 51.2987 29.2632 51.3307 29.0499 51.384C28.8472 51.4373 28.6872 51.5333 28.5699 51.672C28.4632 51.8107 28.3885 52.0027 28.3459 52.248C28.3139 52.4933 28.2979 52.8187 28.2979 53.224V60.12C28.2979 60.568 28.3405 60.936 28.4259 61.224C28.5219 61.5013 28.6765 61.72 28.8899 61.88C29.1139 62.0293 29.4072 62.136 29.7699 62.2C30.1325 62.2533 30.5912 62.28 31.1459 62.28C31.7539 62.28 32.2659 62.248 32.6819 62.184C33.0979 62.1093 33.4445 61.9867 33.7219 61.816C34.0099 61.6347 34.2339 61.3893 34.3939 61.08C34.5645 60.76 34.7085 60.3493 34.8259 59.848H35.4338L35.1939 63Z" fill="#1E1F21" fill-opacity="0.9"/>
</svg>
