<svg  viewBox="0 0 9 29" fill="none" xmlns="http://www.w3.org/2000/svg">
<path d="M8.07 26.0257C8.07 26.4857 7.99 26.8924 7.83 27.2457C7.67 27.5924 7.44667 27.8657 7.16 28.0657C6.87333 28.2657 6.55333 28.3724 6.2 28.3857L6.2 27.6457C6.54 27.6124 6.84 27.4624 7.1 27.1957C7.35333 26.9291 7.48 26.5391 7.48 26.0257C7.48 25.5524 7.36 25.1791 7.12 24.9057C6.87333 24.6257 6.56333 24.4857 6.19 24.4857C5.89 24.4857 5.65 24.5624 5.47 24.7157C5.28333 24.8691 5.14667 25.0591 5.06 25.2857C4.96667 25.5124 4.86667 25.8257 4.76 26.2257C4.63333 26.6924 4.51 27.0624 4.39 27.3357C4.27 27.6091 4.08333 27.8424 3.83 28.0357C3.57667 28.2291 3.23333 28.3257 2.8 28.3257C2.44 28.3257 2.12 28.2324 1.84 28.0457C1.55333 27.8591 1.33 27.5957 1.17 27.2557C1.01 26.9157 0.93 26.5257 0.93 26.0857C0.93 25.4391 1.09 24.9191 1.41 24.5257C1.72333 24.1257 2.13 23.8957 2.63 23.8357L2.63 24.5957C2.34333 24.6424 2.09 24.7991 1.87 25.0657C1.64333 25.3324 1.53 25.6924 1.53 26.1457C1.53 26.5657 1.64333 26.9157 1.87 27.1957C2.09 27.4757 2.39333 27.6157 2.78 27.6157C3.07333 27.6157 3.31 27.5391 3.49 27.3857C3.67 27.2324 3.80667 27.0424 3.9 26.8157C3.99333 26.5824 4.09333 26.2691 4.2 25.8757C4.32667 25.4224 4.45333 25.0557 4.58 24.7757C4.7 24.4957 4.88667 24.2591 5.14 24.0657C5.39333 23.8724 5.73333 23.7757 6.16 23.7757C6.48667 23.7757 6.79667 23.8624 7.09 24.0357C7.38333 24.2091 7.62 24.4657 7.8 24.8057C7.98 25.1457 8.07 25.5524 8.07 26.0257ZM5.27 22.2431C4.70333 22.2431 4.21 22.1297 3.79 21.9031C3.36333 21.6764 3.03667 21.3631 2.81 20.9631C2.57667 20.5631 2.46 20.1064 2.46 19.5931C2.46 18.9197 2.62667 18.3664 2.96 17.9331C3.29333 17.4931 3.74667 17.2097 4.32 17.0831L4.32 17.8331C3.92667 17.9264 3.62 18.1297 3.4 18.4431C3.17333 18.7497 3.06 19.1331 3.06 19.5931C3.06 19.9597 3.14333 20.2897 3.31 20.5831C3.47667 20.8764 3.72667 21.1097 4.06 21.2831C4.38667 21.4497 4.79 21.5331 5.27 21.5331C5.75 21.5331 6.15667 21.4497 6.49 21.2831C6.82333 21.1097 7.07333 20.8764 7.24 20.5831C7.40667 20.2897 7.49 19.9597 7.49 19.5931C7.49 19.1331 7.38 18.7497 7.16 18.4431C6.93333 18.1297 6.62 17.9264 6.22 17.8331L6.22 17.0831C6.78 17.2097 7.23 17.4931 7.57 17.9331C7.91 18.3731 8.08 18.9264 8.08 19.5931C8.08 20.1064 7.96667 20.5631 7.74 20.9631C7.50667 21.3631 7.18 21.6764 6.76 21.9031C6.33333 22.1297 5.83667 22.2431 5.27 22.2431ZM3.51 14.5903C3.17 14.4369 2.90667 14.2036 2.72 13.8903C2.53333 13.5703 2.44 13.1803 2.44 12.7203L3.17 12.7203L3.17 12.9103C3.17 13.4169 3.30667 13.8236 3.58 14.1303C3.85333 14.4369 4.31 14.5903 4.95 14.5903L8 14.5903L8 15.2903L2.54 15.2903L2.54 14.5903L3.51 14.5903ZM8.08 8.77722C8.08 9.29056 7.96667 9.75389 7.74 10.1672C7.50667 10.5739 7.18 10.8972 6.76 11.1372C6.33333 11.3706 5.83667 11.4872 5.27 11.4872C4.70333 11.4872 4.21 11.3672 3.79 11.1272C3.36333 10.8872 3.03667 10.5606 2.81 10.1472C2.57667 9.73389 2.46 9.27056 2.46 8.75722C2.46 8.24389 2.57667 7.78056 2.81 7.36722C3.03667 6.94722 3.36333 6.62056 3.79 6.38722C4.21 6.14722 4.70333 6.02722 5.27 6.02722C5.83 6.02722 6.32333 6.14722 6.75 6.38722C7.17667 6.62722 7.50667 6.95722 7.74 7.37722C7.96667 7.79722 8.08 8.26389 8.08 8.77722ZM7.47 8.77722C7.47 8.41722 7.39 8.08389 7.23 7.77722C7.06333 7.47056 6.81667 7.22389 6.49 7.03722C6.15667 6.84389 5.75 6.74722 5.27 6.74722C4.79 6.74722 4.38667 6.84056 4.06 7.02722C3.72667 7.21389 3.48 7.46056 3.32 7.76722C3.15333 8.07389 3.07 8.40722 3.07 8.76722C3.07 9.12722 3.15333 9.46056 3.32 9.76722C3.48 10.0739 3.72667 10.3206 4.06 10.5072C4.38667 10.6872 4.79 10.7772 5.27 10.7772C5.75 10.7772 6.15667 10.6872 6.49 10.5072C6.81667 10.3206 7.06333 10.0772 7.23 9.77722C7.39 9.47056 7.47 9.13722 7.47 8.77722ZM0.599999 3.55121L8 3.55121L8 4.25121L0.599999 4.25121L0.599999 3.55121ZM0.599999 0.766052L8 0.766052L8 1.46605L0.599999 1.46605L0.599999 0.766052Z" fill="black"/>
</svg>
